<?xml version="1.0" standalone="yes"?>

<svg version="1.1" viewBox="0.0 0.0 711.0 427.0" fill="none" stroke="none" stroke-linecap="square" stroke-miterlimit="10" xmlns="http://www.w3.org/2000/svg" xmlns:xlink="http://www.w3.org/1999/xlink"><clipPath id="p.0"><path d="m0 0l711.0 0l0 427.0l-711.0 0l0 -427.0z" clip-rule="nonzero"></path></clipPath><g clip-path="url(#p.0)"><path fill="#000000" fill-opacity="0.0" d="m0 0l711.1286 0l0 427.26773l-711.1286 0z" fill-rule="nonzero"></path><path fill="#fff2cc" d="m102.88189 30.65678l0 0c0 -16.93127 13.72551 -30.65678 30.656776 -30.65678l336.10376 0c8.130676 0 15.928375 3.2299016 21.677612 8.979163c5.7492676 5.749262 8.979187 13.546933 8.979187 21.677616l0 122.62344c0 16.931274 -13.725525 30.656784 -30.6568 30.656784l-336.10376 0c-16.931267 0 -30.656776 -13.72551 -30.656776 -30.656784z" fill-rule="nonzero"></path><path stroke="#000000" stroke-width="2.0" stroke-linejoin="round" stroke-linecap="butt" d="m102.88189 30.65678l0 0c0 -16.93127 13.72551 -30.65678 30.656776 -30.65678l336.10376 0c8.130676 0 15.928375 3.2299016 21.677612 8.979163c5.7492676 5.749262 8.979187 13.546933 8.979187 21.677616l0 122.62344c0 16.931274 -13.725525 30.656784 -30.6568 30.656784l-336.10376 0c-16.931267 0 -30.656776 -13.72551 -30.656776 -30.656784z" fill-rule="nonzero"></path><path fill="#fff2cc" d="m32.593174 99.86089l0 0c0 -37.37272 32.05923 -67.6693 71.60631 -67.6693l0 0c18.991165 0 37.204514 7.129421 50.6333 19.819878c13.428787 12.690456 20.972992 29.902401 20.972992 47.849415l0 0c0 37.37272 -32.059235 67.66929 -71.60629 67.66929l0 0c-39.547073 0 -71.60631 -30.29657 -71.60631 -67.66929z" fill-rule="nonzero"></path><path stroke="#000000" stroke-width="2.0" stroke-linejoin="round" stroke-linecap="butt" d="m32.593174 99.86089l0 0c0 -37.37272 32.05923 -67.6693 71.60631 -67.6693l0 0c18.991165 0 37.204514 7.129421 50.6333 19.819878c13.428787 12.690456 20.972992 29.902401 20.972992 47.849415l0 0c0 37.37272 -32.059235 67.66929 -71.60629 67.66929l0 0c-39.547073 0 -71.60631 -30.29657 -71.60631 -67.66929z" fill-rule="nonzero"></path><path fill="#ffffff" d="m41.125984 109.69029l0 0c0 -9.793274 7.3538094 -17.732285 16.425198 -17.732285l0 0c4.3562317 0 8.534046 1.8682175 11.614368 5.1936646c3.0803223 3.325447 4.810829 7.835724 4.810829 12.53862l0 0c0 9.793266 -7.353813 17.732277 -16.425198 17.732277l0 0c-9.071388 0 -16.425198 -7.9390106 -16.425198 -17.732277z" fill-rule="nonzero"></path><path stroke="#000000" stroke-width="2.0" stroke-linejoin="round" stroke-linecap="butt" d="m41.125984 109.69029l0 0c0 -9.793274 7.3538094 -17.732285 16.425198 -17.732285l0 0c4.3562317 0 8.534046 1.8682175 11.614368 5.1936646c3.0803223 3.325447 4.810829 7.835724 4.810829 12.53862l0 0c0 9.793266 -7.353813 17.732277 -16.425198 17.732277l0 0c-9.071388 0 -16.425198 -7.9390106 -16.425198 -17.732277z" fill-rule="nonzero"></path><path fill="#ffffff" d="m124.678474 109.69029l0 0c0 -9.793274 7.353813 -17.732285 16.425194 -17.732285l0 0c4.356247 0 8.534058 1.8682175 11.61438 5.1936646c3.0803223 3.325447 4.8108215 7.835724 4.8108215 12.53862l0 0c0 9.793266 -7.3538055 17.732277 -16.425201 17.732277l0 0c-9.071381 0 -16.425194 -7.9390106 -16.425194 -17.732277z" fill-rule="nonzero"></path><path stroke="#000000" stroke-width="2.0" stroke-linejoin="round" stroke-linecap="butt" d="m124.678474 109.69029l0 0c0 -9.793274 7.353813 -17.732285 16.425194 -17.732285l0 0c4.356247 0 8.534058 1.8682175 11.61438 5.1936646c3.0803223 3.325447 4.8108215 7.835724 4.8108215 12.53862l0 0c0 9.793266 -7.3538055 17.732277 -16.425201 17.732277l0 0c-9.071381 0 -16.425194 -7.9390106 -16.425194 -17.732277z" fill-rule="nonzero"></path><path fill="#fff2cc" d="m296.80054 196.10257l0 0c0 -5.804184 4.7052 -10.509399 10.509399 -10.509399l70.94971 0c2.787262 0 5.4603577 1.1072388 7.431244 3.0781403c1.9709167 1.9708862 3.0781555 4.643997 3.0781555 7.431259l0 42.03633c0 5.8041687 -4.7052307 10.509399 -10.509399 10.509399l-70.94971 0c-5.804199 0 -10.509399 -4.7052307 -10.509399 -10.509399z" fill-rule="nonzero"></path><path stroke="#000000" stroke-width="2.0" stroke-linejoin="round" stroke-linecap="butt" d="m296.80054 196.10257l0 0c0 -5.804184 4.7052 -10.509399 10.509399 -10.509399l70.94971 0c2.787262 0 5.4603577 1.1072388 7.431244 3.0781403c1.9709167 1.9708862 3.0781555 4.643997 3.0781555 7.431259l0 42.03633c0 5.8041687 -4.7052307 10.509399 -10.509399 10.509399l-70.94971 0c-5.804199 0 -10.509399 -4.7052307 -10.509399 -10.509399z" fill-rule="nonzero"></path><path fill="#fff2cc" d="m311.51968 248.54202l0 0c0 -0.8465576 0.6862793 -1.5328369 1.5328369 -1.5328369l6.1311646 0l0 0c0.40655518 0 0.79641724 0.16149902 1.0838928 0.44895935c0.2874756 0.28746033 0.4489441 0.6773529 0.4489441 1.0838776l0 25.847717c0 0.8465576 -0.6862488 1.5328369 -1.5328369 1.5328369l-6.1311646 0c-0.8465576 0 -1.5328369 -0.6862793 -1.5328369 -1.5328369z" fill-rule="nonzero"></path><path stroke="#000000" stroke-width="2.0" stroke-linejoin="round" stroke-linecap="butt" d="m311.51968 248.54202l0 0c0 -0.8465576 0.6862793 -1.5328369 1.5328369 -1.5328369l6.1311646 0l0 0c0.40655518 0 0.79641724 0.16149902 1.0838928 0.44895935c0.2874756 0.28746033 0.4489441 0.6773529 0.4489441 1.0838776l0 25.847717c0 0.8465576 -0.6862488 1.5328369 -1.5328369 1.5328369l-6.1311646 0c-0.8465576 0 -1.5328369 -0.6862793 -1.5328369 -1.5328369z" fill-rule="nonzero"></path><path fill="#fff2cc" d="m364.8504 248.54202l0 0c0 -0.8465576 0.6862793 -1.5328369 1.5328369 -1.5328369l6.1311646 0l0 0c0.40652466 0 0.79641724 0.16149902 1.0838928 0.44895935c0.28744507 0.28746033 0.4489441 0.6773529 0.4489441 1.0838776l0 25.847717c0 0.8465576 -0.6862793 1.5328369 -1.5328369 1.5328369l-6.1311646 0c-0.8465576 0 -1.5328369 -0.6862793 -1.5328369 -1.5328369z" fill-rule="nonzero"></path><path stroke="#000000" stroke-width="2.0" stroke-linejoin="round" stroke-linecap="butt" d="m364.8504 248.54202l0 0c0 -0.8465576 0.6862793 -1.5328369 1.5328369 -1.5328369l6.1311646 0l0 0c0.40652466 0 0.79641724 0.16149902 1.0838928 0.44895935c0.28744507 0.28746033 0.4489441 0.6773529 0.4489441 1.0838776l0 25.847717c0 0.8465576 -0.6862793 1.5328369 -1.5328369 1.5328369l-6.1311646 0c-0.8465576 0 -1.5328369 -0.6862793 -1.5328369 -1.5328369z" fill-rule="nonzero"></path><path fill="#fff2cc" d="m329.2966 248.54202l0 0c0 -0.8465576 0.6862488 -1.5328369 1.5328369 -1.5328369l6.1311646 0l0 0c0.40652466 0 0.79641724 0.16149902 1.0838928 0.44895935c0.28744507 0.28746033 0.4489441 0.6773529 0.4489441 1.0838776l0 25.847717c0 0.8465576 -0.6862793 1.5328369 -1.5328369 1.5328369l-6.1311646 0c-0.84658813 0 -1.5328369 -0.6862793 -1.5328369 -1.5328369z" fill-rule="nonzero"></path><path stroke="#000000" stroke-width="2.0" stroke-linejoin="round" stroke-linecap="butt" d="m329.2966 248.54202l0 0c0 -0.8465576 0.6862488 -1.5328369 1.5328369 -1.5328369l6.1311646 0l0 0c0.40652466 0 0.79641724 0.16149902 1.0838928 0.44895935c0.28744507 0.28746033 0.4489441 0.6773529 0.4489441 1.0838776l0 25.847717c0 0.8465576 -0.6862793 1.5328369 -1.5328369 1.5328369l-6.1311646 0c-0.84658813 0 -1.5328369 -0.6862793 -1.5328369 -1.5328369z" fill-rule="nonzero"></path><path fill="#fff2cc" d="m347.0735 248.54202l0 0c0 -0.8465576 0.6862793 -1.5328369 1.5328369 -1.5328369l6.1311646 0l0 0c0.40655518 0 0.79641724 0.16149902 1.0838928 0.44895935c0.2874756 0.28746033 0.4489746 0.6773529 0.4489746 1.0838776l0 25.847717c0 0.8465576 -0.6862793 1.5328369 -1.5328674 1.5328369l-6.1311646 0c-0.8465576 0 -1.5328369 -0.6862793 -1.5328369 -1.5328369z" fill-rule="nonzero"></path><path stroke="#000000" stroke-width="2.0" stroke-linejoin="round" stroke-linecap="butt" d="m347.0735 248.54202l0 0c0 -0.8465576 0.6862793 -1.5328369 1.5328369 -1.5328369l6.1311646 0l0 0c0.40655518 0 0.79641724 0.16149902 1.0838928 0.44895935c0.2874756 0.28746033 0.4489746 0.6773529 0.4489746 1.0838776l0 25.847717c0 0.8465576 -0.6862793 1.5328369 -1.5328674 1.5328369l-6.1311646 0c-0.8465576 0 -1.5328369 -0.6862793 -1.5328369 -1.5328369z" fill-rule="nonzero"></path><path fill="#000000" d="m41.125984 109.69029l0 0c0 -3.261528 2.0587845 -5.9055176 4.598427 -5.9055176l0 0c1.2195778 0 2.389206 0.62218475 3.2515755 1.7296829c0.86237335 1.1074982 1.3468475 2.6095886 1.3468475 4.1758347l0 0c0 3.2615204 -2.0587845 5.90551 -4.598423 5.90551l0 0c-2.5396423 0 -4.598427 -2.6439896 -4.598427 -5.90551z" fill-rule="nonzero"></path><path stroke="#000000" stroke-width="2.0" stroke-linejoin="round" stroke-linecap="butt" d="m41.125984 109.69029l0 0c0 -3.261528 2.0587845 -5.9055176 4.598427 -5.9055176l0 0c1.2195778 0 2.389206 0.62218475 3.2515755 1.7296829c0.86237335 1.1074982 1.3468475 2.6095886 1.3468475 4.1758347l0 0c0 3.2615204 -2.0587845 5.90551 -4.598423 5.90551l0 0c-2.5396423 0 -4.598427 -2.6439896 -4.598427 -5.90551z" fill-rule="nonzero"></path><path fill="#000000" d="m139.00525 109.69029l0 0c0 -3.261528 2.058792 -5.9055176 4.598419 -5.9055176l0 0c1.2195892 0 2.389206 0.62218475 3.251587 1.7296829c0.8623657 1.1074982 1.3468475 2.6095886 1.3468475 4.1758347l0 0c0 3.2615204 -2.058792 5.90551 -4.5984344 5.90551l0 0c-2.539627 0 -4.598419 -2.6439896 -4.598419 -5.90551z" fill-rule="nonzero"></path><path stroke="#000000" stroke-width="2.0" stroke-linejoin="round" stroke-linecap="butt" d="m139.00525 109.69029l0 0c0 -3.261528 2.058792 -5.9055176 4.598419 -5.9055176l0 0c1.2195892 0 2.389206 0.62218475 3.251587 1.7296829c0.8623657 1.1074982 1.3468475 2.6095886 1.3468475 4.1758347l0 0c0 3.2615204 -2.058792 5.90551 -4.5984344 5.90551l0 0c-2.539627 0 -4.598419 -2.6439896 -4.598419 -5.90551z" fill-rule="nonzero"></path><path fill="#999999" d="m79.22835 146.48819l0 0c0 -3.2615204 5.295021 -5.9055176 11.826767 -5.9055176l0 0c6.531746 0 11.826775 2.6439972 11.826775 5.9055176l0 0c0 3.2615204 -5.2950287 5.9055176 -11.826775 5.9055176l0 0c-6.531746 0 -11.826767 -2.6439972 -11.826767 -5.9055176z" fill-rule="nonzero"></path><path stroke="#000000" stroke-width="2.0" stroke-linejoin="round" stroke-linecap="butt" d="m79.22835 146.48819l0 0c0 -3.2615204 5.295021 -5.9055176 11.826767 -5.9055176l0 0c6.531746 0 11.826775 2.6439972 11.826775 5.9055176l0 0c0 3.2615204 -5.2950287 5.9055176 -11.826775 5.9055176l0 0c-6.531746 0 -11.826767 -2.6439972 -11.826767 -5.9055176z" fill-rule="nonzero"></path><path fill="#d9d9d9" d="m284.31235 297.18942l0 0c0 8.073364 26.178986 14.618103 58.472443 14.618103c32.293427 0 58.472443 -6.544739 58.472443 -14.618103l0 98.85828c0 8.073364 -26.179016 14.618103 -58.472443 14.618103c-32.293457 0 -58.472443 -6.544739 -58.472443 -14.618103z" fill-rule="nonzero"></path><path fill="#e8e8e8" d="m284.31235 297.18942l0 0c0 -8.073364 26.178986 -14.618103 58.472443 -14.618103c32.293427 0 58.472443 6.544739 58.472443 14.618103l0 0c0 8.073364 -26.179016 14.618103 -58.472443 14.618103c-32.293457 0 -58.472443 -6.544739 -58.472443 -14.618103z" fill-rule="nonzero"></path><path fill="#000000" fill-opacity="0.0" d="m401.25723 297.18942l0 0c0 8.073364 -26.179016 14.618103 -58.472443 14.618103c-32.293457 0 -58.472443 -6.544739 -58.472443 -14.618103l0 0c0 -8.073364 26.178986 -14.618103 58.472443 -14.618103c32.293427 0 58.472443 6.544739 58.472443 14.618103l0 98.85828c0 8.073364 -26.179016 14.618103 -58.472443 14.618103c-32.293457 0 -58.472443 -6.544739 -58.472443 -14.618103l0 -98.85828" fill-rule="nonzero"></path><path stroke="#000000" stroke-width="2.0" stroke-linejoin="round" stroke-linecap="butt" d="m401.25723 297.18942l0 0c0 8.073364 -26.179016 14.618103 -58.472443 14.618103c-32.293457 0 -58.472443 -6.544739 -58.472443 -14.618103l0 0c0 -8.073364 26.178986 -14.618103 58.472443 -14.618103c32.293427 0 58.472443 6.544739 58.472443 14.618103l0 98.85828c0 8.073364 -26.179016 14.618103 -58.472443 14.618103c-32.293457 0 -58.472443 -6.544739 -58.472443 -14.618103l0 -98.85828" fill-rule="nonzero"></path><path fill="#d9d9d9" d="m290.88715 331.04355l97.88977 0l0 39.24411l-97.88977 0z" fill-rule="nonzero"></path><path fill="#000000" d="m316.8433 357.96356l0 -13.59375l2.71875 0l3.21875 9.625q0.4375 1.34375 0.640625 2.015625q0.234375 -0.75 0.734375 -2.1875l3.25 -9.453125l2.421875 0l0 13.59375l-1.734375 0l0 -11.390625l-3.953125 11.390625l-1.625 0l-3.9375 -11.578125l0 11.578125l-1.734375 0zm15.634552 0l0 -13.59375l9.84375 0l0 1.59375l-8.046875 0l0 4.171875l7.53125 0l0 1.59375l-7.53125 0l0 4.625l8.359375 0l0 1.609375l-10.15625 0zm12.334198 0l0 -13.59375l1.796875 0l0 11.984375l6.703125 0l0 1.609375l-8.5 0zm10.375732 0l0 -13.59375l1.796875 0l0 6.734375l6.765625 -6.734375l2.4375 0l-5.703125 5.5l5.953125 8.09375l-2.375 0l-4.84375 -6.890625l-2.234375 2.171875l0 4.71875l-1.796875 0z" fill-rule="nonzero"></path><path fill="#fff2cc" d="m148.2021 189.43056l0 0c0 -3.0238647 2.4513092 -5.475174 5.475174 -5.475174l21.90004 0l0 0c1.4521027 0 2.8447418 0.57684326 3.8715363 1.6036377c1.0267944 1.0267944 1.6036377 2.4194336 1.6036377 3.8715363l0 215.75832c0 3.0238342 -2.4513092 5.4751587 -5.475174 5.4751587l-21.90004 0c-3.0238647 0 -5.475174 -2.4513245 -5.475174 -5.4751587z" fill-rule="nonzero"></path><path stroke="#000000" stroke-width="2.0" stroke-linejoin="round" stroke-linecap="butt" d="m148.2021 189.43056l0 0c0 -3.0238647 2.4513092 -5.475174 5.475174 -5.475174l21.90004 0l0 0c1.4521027 0 2.8447418 0.57684326 3.8715363 1.6036377c1.0267944 1.0267944 1.6036377 2.4194336 1.6036377 3.8715363l0 215.75832c0 3.0238342 -2.4513092 5.4751587 -5.475174 5.4751587l-21.90004 0c-3.0238647 0 -5.475174 -2.4513245 -5.475174 -5.4751587z" fill-rule="nonzero"></path><path fill="#fff2cc" d="m442.11023 189.43056l0 0c0 -3.0238647 2.4513245 -5.475174 5.475189 -5.475174l21.900024 0l0 0c1.4521179 0 2.844757 0.57684326 3.8715515 1.6036377c1.0267944 1.0267944 1.6036377 2.4194336 1.6036377 3.8715363l0 215.75832c0 3.0238342 -2.4513245 5.4751587 -5.475189 5.4751587l-21.900024 0c-3.0238647 0 -5.475189 -2.4513245 -5.475189 -5.4751587z" fill-rule="nonzero"></path><path stroke="#000000" stroke-width="2.0" stroke-linejoin="round" stroke-linecap="butt" d="m442.11023 189.43056l0 0c0 -3.0238647 2.4513245 -5.475174 5.475189 -5.475174l21.900024 0l0 0c1.4521179 0 2.844757 0.57684326 3.8715515 1.6036377c1.0267944 1.0267944 1.6036377 2.4194336 1.6036377 3.8715363l0 215.75832c0 3.0238342 -2.4513245 5.4751587 -5.475189 5.4751587l-21.900024 0c-3.0238647 0 -5.475189 -2.4513245 -5.475189 -5.4751587z" fill-rule="nonzero"></path><path fill="#fff2cc" d="m115.35171 191.06834l0 0c0 -3.0238495 2.4513168 -5.475174 5.475174 -5.475174l21.900047 0l0 0c1.4521027 0 2.8447418 0.5768585 3.8715363 1.603653c1.0267944 1.0267944 1.6036377 2.4194183 1.6036377 3.871521l0 140.79768c0 3.0238647 -2.4513245 5.475189 -5.475174 5.475189l-21.900047 0c-3.023857 0 -5.475174 -2.4513245 -5.475174 -5.475189z" fill-rule="nonzero"></path><path stroke="#000000" stroke-width="2.0" stroke-linejoin="round" stroke-linecap="butt" d="m115.35171 191.06834l0 0c0 -3.0238495 2.4513168 -5.475174 5.475174 -5.475174l21.900047 0l0 0c1.4521027 0 2.8447418 0.5768585 3.8715363 1.603653c1.0267944 1.0267944 1.6036377 2.4194183 1.6036377 3.871521l0 140.79768c0 3.0238647 -2.4513245 5.475189 -5.475174 5.475189l-21.900047 0c-3.023857 0 -5.475174 -2.4513245 -5.475174 -5.475189z" fill-rule="nonzero"></path><path fill="#fff2cc" d="m407.49344 189.43056l0 0c0 -3.0238647 2.4513245 -5.475174 5.475189 -5.475174l21.900024 0l0 0c1.4521179 0 2.844757 0.57684326 3.8715515 1.6036377c1.0267944 1.0267944 1.6036377 2.4194336 1.6036377 3.8715363l0 158.52995c0 3.0238647 -2.4513245 5.475189 -5.475189 5.475189l-21.900024 0c-3.0238647 0 -5.475189 -2.4513245 -5.475189 -5.475189z" fill-rule="nonzero"></path><path stroke="#000000" stroke-width="2.0" stroke-linejoin="round" stroke-linecap="butt" d="m407.49344 189.43056l0 0c0 -3.0238647 2.4513245 -5.475174 5.475189 -5.475174l21.900024 0l0 0c1.4521179 0 2.844757 0.57684326 3.8715515 1.6036377c1.0267944 1.0267944 1.6036377 2.4194336 1.6036377 3.8715363l0 158.52995c0 3.0238647 -2.4513245 5.475189 -5.475189 5.475189l-21.900024 0c-3.0238647 0 -5.475189 -2.4513245 -5.475189 -5.475189z" fill-rule="nonzero"></path><path fill="#fff2cc" d="m494.85364 12.928436c3.5746155 -7.140563 23.041443 -4.630537 43.480286 5.6063004c20.438904 10.2368355 34.110107 24.324001 30.535461 31.464565l-6.463928 -3.2374687c1.7872925 -3.570282 -10.438782 -13.313698 -27.30774 -21.76253c-16.868958 -8.448832 -31.992828 -12.403677 -33.78015 -8.833395z" fill-rule="nonzero"></path><path stroke="#000000" stroke-width="2.0" stroke-linejoin="round" stroke-linecap="butt" d="m494.85364 12.928436c3.5746155 -7.140563 23.041443 -4.630537 43.480286 5.6063004c20.438904 10.2368355 34.110107 24.324001 30.535461 31.464565l-6.463928 -3.2374687c1.7872925 -3.570282 -10.438782 -13.313698 -27.30774 -21.76253c-16.868958 -8.448832 -31.992828 -12.403677 -33.78015 -8.833395z" fill-rule="nonzero"></path><path fill="#fff2cc" d="m629.9521 97.400635c-5.0270996 6.2012405 -23.499756 -0.43340302 -41.259827 -14.818901c-17.76007 -14.385498 -28.082214 -31.074345 -23.055115 -37.27559l5.616028 4.548912l0 0c-2.5135498 3.100624 7.331787 15.239304 21.990234 27.112503c14.658508 11.873199 28.579163 18.98478 31.092651 15.884155z" fill-rule="nonzero"></path><path stroke="#000000" stroke-width="2.0" stroke-linejoin="round" stroke-linecap="butt" d="m629.9521 97.400635c-5.0270996 6.2012405 -23.499756 -0.43340302 -41.259827 -14.818901c-17.76007 -14.385498 -28.082214 -31.074345 -23.055115 -37.27559l5.616028 4.548912l0 0c-2.5135498 3.100624 7.331787 15.239304 21.990234 27.112503c14.658508 11.873199 28.579163 18.98478 31.092651 15.884155z" fill-rule="nonzero"></path><path fill="#fff2cc" d="m698.1607 58.85113c3.548523 7.157955 -10.164978 21.202824 -30.629944 31.370083c-20.464966 10.167252 -39.931763 12.606773 -43.480347 5.4488144l6.4776 -3.218132l0 0c1.774292 3.5789719 16.902649 -0.3210678 33.79016 -8.710999c16.887512 -8.389931 29.139221 -18.092651 27.36493 -21.67163z" fill-rule="nonzero"></path><path stroke="#000000" stroke-width="2.0" stroke-linejoin="round" stroke-linecap="butt" d="m698.1607 58.85113c3.548523 7.157955 -10.164978 21.202824 -30.629944 31.370083c-20.464966 10.167252 -39.931763 12.606773 -43.480347 5.4488144l6.4776 -3.218132l0 0c1.774292 3.5789719 16.902649 -0.3210678 33.79016 -8.710999c16.887512 -8.389931 29.139221 -18.092651 27.36493 -21.67163z" fill-rule="nonzero"></path><path fill="#fff2cc" d="m0 56.34646l0 0c0 -5.775074 10.441989 -10.456696 23.322834 -10.456696l0 0c12.880848 0 23.322834 4.6816216 23.322834 10.456696l0 0c0 5.77507 -10.441986 10.456688 -23.322834 10.456688l0 0c-12.880845 0 -23.322834 -4.6816177 -23.322834 -10.456688z" fill-rule="nonzero"></path><path stroke="#000000" stroke-width="2.0" stroke-linejoin="round" stroke-linecap="butt" d="m0 56.34646l0 0c0 -5.775074 10.441989 -10.456696 23.322834 -10.456696l0 0c12.880848 0 23.322834 4.6816216 23.322834 10.456696l0 0c0 5.77507 -10.441986 10.456688 -23.322834 10.456688l0 0c-12.880845 0 -23.322834 -4.6816177 -23.322834 -10.456688z" fill-rule="nonzero"></path><path fill="#fff2cc" d="m157.53018 63.149605l0 0c0 -5.77507 10.441986 -10.456692 23.32283 -10.456692l0 0c12.880859 0 23.322845 4.6816216 23.322845 10.456692l0 0c0 5.77507 -10.441986 10.456696 -23.322845 10.456696l0 0c-12.880844 0 -23.32283 -4.6816254 -23.32283 -10.456696z" fill-rule="nonzero"></path><path stroke="#000000" stroke-width="2.0" stroke-linejoin="round" stroke-linecap="butt" d="m157.53018 63.149605l0 0c0 -5.77507 10.441986 -10.456692 23.32283 -10.456692l0 0c12.880859 0 23.322845 4.6816216 23.322845 10.456692l0 0c0 5.77507 -10.441986 10.456696 -23.322845 10.456696l0 0c-12.880844 0 -23.32283 -4.6816254 -23.32283 -10.456696z" fill-rule="nonzero"></path></g></svg>

