<?xml version="1.0" standalone="yes"?>

<svg version="1.1" viewBox="0.0 0.0 960.0 721.0" fill="none" stroke="none" stroke-linecap="square" stroke-miterlimit="10" xmlns="http://www.w3.org/2000/svg" xmlns:xlink="http://www.w3.org/1999/xlink"><clipPath id="p.0"><path d="m0 0l960.0 0l0 721.0l-960.0 0l0 -721.0z" clip-rule="nonzero"></path></clipPath><g clip-path="url(#p.0)"><path fill="#000000" fill-opacity="0.0" d="m0 0l960.44617 0l0 721.14435l-960.44617 0z" fill-rule="nonzero"></path><path fill="#ffffff" d="m0 0l960.00006 0l0 720.0l-960.00006 0z" fill-rule="nonzero"></path><path stroke="#000000" stroke-width="2.0" stroke-linejoin="round" stroke-linecap="butt" d="m0 0l960.00006 0l0 720.0l-960.00006 0z" fill-rule="nonzero"></path><path fill="#ffffff" d="m380.35303 180.21523l181.32281 0l0 130.07872l-181.32281 0z" fill-rule="nonzero"></path><path stroke="#000000" stroke-width="2.0" stroke-linejoin="round" stroke-linecap="butt" d="m380.35303 180.21523l181.32281 0l0 130.07872l-181.32281 0z" fill-rule="nonzero"></path><path fill="#ffffff" d="m347.5105 180.21523l123.50394 -78.17586l123.50394 78.17586z" fill-rule="nonzero"></path><path stroke="#000000" stroke-width="2.0" stroke-linejoin="round" stroke-linecap="butt" d="m347.5105 180.21523l123.50394 -78.17586l123.50394 78.17586z" fill-rule="nonzero"></path><path fill="#ffffff" d="m388.23752 199.92389l27.590576 0l0 27.590546l-27.590576 0z" fill-rule="nonzero"></path><path stroke="#000000" stroke-width="2.0" stroke-linejoin="round" stroke-linecap="butt" d="m388.23752 199.92389l27.590576 0l0 27.590546l-27.590576 0z" fill-rule="nonzero"></path><path fill="#ffffff" d="m432.81104 199.92389l27.590546 0l0 27.590546l-27.590546 0z" fill-rule="nonzero"></path><path stroke="#000000" stroke-width="2.0" stroke-linejoin="round" stroke-linecap="butt" d="m432.81104 199.92389l27.590546 0l0 27.590546l-27.590546 0z" fill-rule="nonzero"></path><path fill="#ffffff" d="m477.38715 199.92389l27.590546 0l0 27.590546l-27.590546 0z" fill-rule="nonzero"></path><path stroke="#000000" stroke-width="2.0" stroke-linejoin="round" stroke-linecap="butt" d="m477.38715 199.92389l27.590546 0l0 27.590546l-27.590546 0z" fill-rule="nonzero"></path><path fill="#ffffff" d="m525.5761 199.92389l27.590576 0l0 27.590546l-27.590576 0z" fill-rule="nonzero"></path><path stroke="#000000" stroke-width="2.0" stroke-linejoin="round" stroke-linecap="butt" d="m525.5761 199.92389l27.590576 0l0 27.590546l-27.590576 0z" fill-rule="nonzero"></path><path fill="#ffffff" d="m445.67584 252.49869l50.677185 0l0 57.795288l-50.677185 0z" fill-rule="nonzero"></path><path stroke="#000000" stroke-width="2.0" stroke-linejoin="round" stroke-linecap="butt" d="m445.67584 252.49869l50.677185 0l0 57.795288l-50.677185 0z" fill-rule="nonzero"></path><path fill="#000000" fill-opacity="0.0" d="m471.01443 252.49869l0 57.795288" fill-rule="nonzero"></path><path stroke="#000000" stroke-width="2.0" stroke-linejoin="round" stroke-linecap="butt" d="m471.01443 252.49869l0 57.795288" fill-rule="nonzero"></path><path fill="#cfe2f3" d="m680.5853 332.8427l0 0c0 -5.3200073 4.312683 -9.632751 9.63269 -9.632751l74.02588 0c2.5547485 0 5.004883 1.0148926 6.8114014 2.8213806c1.8064575 1.806488 2.82135 4.2566223 2.82135 6.811371l0 38.529785c0 5.320038 -4.312744 9.632751 -9.632751 9.632751l-74.02588 0c-5.3200073 0 -9.63269 -4.3127136 -9.63269 -9.632751z" fill-rule="nonzero"></path><path stroke="#000000" stroke-width="2.0" stroke-linejoin="round" stroke-linecap="butt" d="m680.5853 332.8427l0 0c0 -5.3200073 4.312683 -9.632751 9.63269 -9.632751l74.02588 0c2.5547485 0 5.004883 1.0148926 6.8114014 2.8213806c1.8064575 1.806488 2.82135 4.2566223 2.82135 6.811371l0 38.529785c0 5.320038 -4.312744 9.632751 -9.632751 9.632751l-74.02588 0c-5.3200073 0 -9.63269 -4.3127136 -9.63269 -9.632751z" fill-rule="nonzero"></path><path fill="#cfe2f3" d="m533.0446 306.5671l0 0c0 -5.3200073 4.312744 -9.632721 9.632751 -9.632721l74.02588 0c2.5547485 0 5.004883 1.0148621 6.8113403 2.82135c1.8065186 1.806488 2.82135 4.2566223 2.82135 6.811371l0 38.529816c0 5.3200073 -4.312683 9.632751 -9.63269 9.632751l-74.02588 0c-5.3200073 0 -9.632751 -4.312744 -9.632751 -9.632751z" fill-rule="nonzero"></path><path stroke="#000000" stroke-width="2.0" stroke-linejoin="round" stroke-linecap="butt" d="m533.0446 306.5671l0 0c0 -5.3200073 4.312744 -9.632721 9.632751 -9.632721l74.02588 0c2.5547485 0 5.004883 1.0148621 6.8113403 2.82135c1.8065186 1.806488 2.82135 4.2566223 2.82135 6.811371l0 38.529816c0 5.3200073 -4.312683 9.632751 -9.63269 9.632751l-74.02588 0c-5.3200073 0 -9.632751 -4.312744 -9.632751 -9.632751z" fill-rule="nonzero"></path><path fill="#ffffff" d="m520.2913 300.87927l0 0c0 -12.332916 9.997803 -22.330719 22.33075 -22.330719l0 0c5.9224243 0 11.602356 2.3526917 15.790161 6.5405273c4.187805 4.187805 6.5405273 9.867706 6.5405273 15.790192l0 0c0 12.332916 -9.997803 22.330688 -22.330688 22.330688l0 0c-12.332947 0 -22.33075 -9.997772 -22.33075 -22.330688z" fill-rule="nonzero"></path><path stroke="#000000" stroke-width="2.0" stroke-linejoin="round" stroke-linecap="butt" d="m520.2913 300.87927l0 0c0 -12.332916 9.997803 -22.330719 22.33075 -22.330719l0 0c5.9224243 0 11.602356 2.3526917 15.790161 6.5405273c4.187805 4.187805 6.5405273 9.867706 6.5405273 15.790192l0 0c0 12.332916 -9.997803 22.330688 -22.330688 22.330688l0 0c-12.332947 0 -22.33075 -9.997772 -22.33075 -22.330688z" fill-rule="nonzero"></path><path fill="#ffffff" d="m666.3753 332.62466l0 0c0 -12.332916 9.997803 -22.330688 22.33075 -22.330688l0 0c5.9224243 0 11.602356 2.3526917 15.790161 6.540497c4.187866 4.1878357 6.5405273 9.867737 6.5405273 15.790192l0 0c0 12.332916 -9.997803 22.330719 -22.330688 22.330719l0 0c-12.332947 0 -22.33075 -9.997803 -22.33075 -22.330719z" fill-rule="nonzero"></path><path stroke="#000000" stroke-width="2.0" stroke-linejoin="round" stroke-linecap="butt" d="m666.3753 332.62466l0 0c0 -12.332916 9.997803 -22.330688 22.33075 -22.330688l0 0c5.9224243 0 11.602356 2.3526917 15.790161 6.540497c4.187866 4.1878357 6.5405273 9.867737 6.5405273 15.790192l0 0c0 12.332916 -9.997803 22.330719 -22.330688 22.330719l0 0c-12.332947 0 -22.33075 -9.997803 -22.33075 -22.330719z" fill-rule="nonzero"></path><path fill="#ffffff" d="m555.7559 354.72964l9.196838 0l0 44.661438l-9.196838 0z" fill-rule="nonzero"></path><path stroke="#000000" stroke-width="2.0" stroke-linejoin="round" stroke-linecap="butt" d="m555.7559 354.72964l9.196838 0l0 44.661438l-9.196838 0z" fill-rule="nonzero"></path><path fill="#ffffff" d="m611.0656 354.72964l9.196838 0l0 44.661438l-9.196838 0z" fill-rule="nonzero"></path><path stroke="#000000" stroke-width="2.0" stroke-linejoin="round" stroke-linecap="butt" d="m611.0656 354.72964l9.196838 0l0 44.661438l-9.196838 0z" fill-rule="nonzero"></path><path fill="#ffffff" d="m541.54596 354.72964l9.196838 0l0 44.661438l-9.196838 0z" fill-rule="nonzero"></path><path stroke="#000000" stroke-width="2.0" stroke-linejoin="round" stroke-linecap="butt" d="m541.54596 354.72964l9.196838 0l0 44.661438l-9.196838 0z" fill-rule="nonzero"></path><path fill="#ffffff" d="m594.5184 354.72964l9.196838 0l0 44.661438l-9.196838 0z" fill-rule="nonzero"></path><path stroke="#000000" stroke-width="2.0" stroke-linejoin="round" stroke-linecap="butt" d="m594.5184 354.72964l9.196838 0l0 44.661438l-9.196838 0z" fill-rule="nonzero"></path><path fill="#ffffff" d="m683.53284 381.00525l9.196838 0l0 44.661407l-9.196838 0z" fill-rule="nonzero"></path><path stroke="#000000" stroke-width="2.0" stroke-linejoin="round" stroke-linecap="butt" d="m683.53284 381.00525l9.196838 0l0 44.661407l-9.196838 0z" fill-rule="nonzero"></path><path fill="#ffffff" d="m701.8268 381.00525l9.196838 0l0 44.661407l-9.196838 0z" fill-rule="nonzero"></path><path stroke="#000000" stroke-width="2.0" stroke-linejoin="round" stroke-linecap="butt" d="m701.8268 381.00525l9.196838 0l0 44.661407l-9.196838 0z" fill-rule="nonzero"></path><path fill="#ffffff" d="m742.42255 381.00525l9.196899 0l0 44.661407l-9.196899 0z" fill-rule="nonzero"></path><path stroke="#000000" stroke-width="2.0" stroke-linejoin="round" stroke-linecap="butt" d="m742.42255 381.00525l9.196899 0l0 44.661407l-9.196899 0z" fill-rule="nonzero"></path><path fill="#ffffff" d="m756.0 381.00525l9.196838 0l0 44.661407l-9.196838 0z" fill-rule="nonzero"></path><path stroke="#000000" stroke-width="2.0" stroke-linejoin="round" stroke-linecap="butt" d="m756.0 381.00525l9.196838 0l0 44.661407l-9.196838 0z" fill-rule="nonzero"></path><path fill="#ffffff" d="m523.1522 300.87927l0 0c0 -3.626831 2.9401245 -6.566925 6.5669556 -6.566925l0 0c1.7416382 0 3.4119873 0.691864 4.6434937 1.9234009c1.2315674 1.2315369 1.9234009 2.9018555 1.9234009 4.643524l0 0c0 3.6268005 -2.9401245 6.566925 -6.5668945 6.566925l0 0c-3.626831 0 -6.5669556 -2.9401245 -6.5669556 -6.566925z" fill-rule="nonzero"></path><path stroke="#000000" stroke-width="2.0" stroke-linejoin="round" stroke-linecap="butt" d="m523.1522 300.87927l0 0c0 -3.626831 2.9401245 -6.566925 6.5669556 -6.566925l0 0c1.7416382 0 3.4119873 0.691864 4.6434937 1.9234009c1.2315674 1.2315369 1.9234009 2.9018555 1.9234009 4.643524l0 0c0 3.6268005 -2.9401245 6.566925 -6.5668945 6.566925l0 0c-3.626831 0 -6.5669556 -2.9401245 -6.5669556 -6.566925z" fill-rule="nonzero"></path><path fill="#ffffff" d="m539.1522 303.72702l0 0c0 -3.6268005 2.9401245 -6.566925 6.5669556 -6.566925l0 0c1.7416382 0 3.4119873 0.69189453 4.6434937 1.9234314c1.2315674 1.2315369 1.9234009 2.9018555 1.9234009 4.6434937l0 0c0 3.626831 -2.9401245 6.5669556 -6.5668945 6.5669556l0 0c-3.626831 0 -6.5669556 -2.9401245 -6.5669556 -6.5669556z" fill-rule="nonzero"></path><path stroke="#000000" stroke-width="2.0" stroke-linejoin="round" stroke-linecap="butt" d="m539.1522 303.72702l0 0c0 -3.6268005 2.9401245 -6.566925 6.5669556 -6.566925l0 0c1.7416382 0 3.4119873 0.69189453 4.6434937 1.9234314c1.2315674 1.2315369 1.9234009 2.9018555 1.9234009 4.6434937l0 0c0 3.626831 -2.9401245 6.5669556 -6.5668945 6.5669556l0 0c-3.626831 0 -6.5669556 -2.9401245 -6.5669556 -6.5669556z" fill-rule="nonzero"></path><path fill="#ffffff" d="m657.16534 325.83203l0 0c0 -3.626831 2.9401245 -6.566925 6.5669556 -6.566925l0 0c1.7416382 0 3.4119873 0.691864 4.6434937 1.9234009c1.2315674 1.2315369 1.9234009 2.9018555 1.9234009 4.643524l0 0c0 3.6268005 -2.9401245 6.566925 -6.5668945 6.566925l0 0c-3.626831 0 -6.5669556 -2.9401245 -6.5669556 -6.566925z" fill-rule="nonzero"></path><path stroke="#000000" stroke-width="2.0" stroke-linejoin="round" stroke-linecap="butt" d="m657.16534 325.83203l0 0c0 -3.626831 2.9401245 -6.566925 6.5669556 -6.566925l0 0c1.7416382 0 3.4119873 0.691864 4.6434937 1.9234009c1.2315674 1.2315369 1.9234009 2.9018555 1.9234009 4.643524l0 0c0 3.6268005 -2.9401245 6.566925 -6.5668945 6.566925l0 0c-3.626831 0 -6.5669556 -2.9401245 -6.5669556 -6.566925z" fill-rule="nonzero"></path><path fill="#ffffff" d="m681.56433 316.8609l0 0c0 -3.626831 2.9400635 -6.566925 6.5668945 -6.566925l0 0c1.7416382 0 3.4119873 0.691864 4.6435547 1.9234009c1.2315063 1.2315369 1.9234009 2.9018555 1.9234009 4.643524l0 0c0 3.6268005 -2.9401245 6.566925 -6.5669556 6.566925l0 0c-3.626831 0 -6.5668945 -2.9401245 -6.5668945 -6.566925z" fill-rule="nonzero"></path><path stroke="#000000" stroke-width="2.0" stroke-linejoin="round" stroke-linecap="butt" d="m681.56433 316.8609l0 0c0 -3.626831 2.9400635 -6.566925 6.5668945 -6.566925l0 0c1.7416382 0 3.4119873 0.691864 4.6435547 1.9234009c1.2315063 1.2315369 1.9234009 2.9018555 1.9234009 4.643524l0 0c0 3.6268005 -2.9401245 6.566925 -6.5669556 6.566925l0 0c-3.626831 0 -6.5668945 -2.9401245 -6.5668945 -6.566925z" fill-rule="nonzero"></path><path fill="#000000" fill-opacity="0.0" d="m626.33594 304.92914c9.111023 1.8200073 19.282227 8.093018 27.5932 3.9396362c10.584106 -5.2894287 12.298584 -31.078827 1.3123169 -35.472443" fill-rule="evenodd"></path><path stroke="#000000" stroke-width="2.0" stroke-linejoin="round" stroke-linecap="butt" d="m626.33594 304.92914c9.111023 1.8200073 19.282227 8.093018 27.5932 3.9396362c10.584106 -5.2894287 12.298584 -31.078827 1.3123169 -35.472443" fill-rule="evenodd"></path><path fill="#000000" fill-opacity="0.0" d="m772.55383 327.15222c14.705261 1.8395386 36.894165 27.998962 24.963257 36.79004c-13.768188 10.144806 -34.412598 5.6860657 -51.23889 2.6272888" fill-rule="evenodd"></path><path stroke="#000000" stroke-width="2.0" stroke-linejoin="round" stroke-linecap="butt" d="m772.55383 327.15222c14.705261 1.8395386 36.894165 27.998962 24.963257 36.79004c-13.768188 10.144806 -34.412598 5.6860657 -51.23889 2.6272888" fill-rule="evenodd"></path><path fill="#cfe2f3" d="m178.91864 394.80054l0 0c0 -7.618927 6.176346 -13.795288 13.795273 -13.795288l0 0c3.6587372 0 7.167618 1.4534302 9.75473 4.040558c2.5871124 2.5870972 4.0405426 6.095978 4.0405426 9.75473l0 0c0 7.6188965 -6.176361 13.795258 -13.795273 13.795258l0 0c-7.618927 0 -13.795273 -6.176361 -13.795273 -13.795258z" fill-rule="nonzero"></path><path stroke="#000000" stroke-width="2.0" stroke-linejoin="round" stroke-linecap="butt" d="m178.91864 394.80054l0 0c0 -7.618927 6.176346 -13.795288 13.795273 -13.795288l0 0c3.6587372 0 7.167618 1.4534302 9.75473 4.040558c2.5871124 2.5870972 4.0405426 6.095978 4.0405426 9.75473l0 0c0 7.6188965 -6.176361 13.795258 -13.795273 13.795258l0 0c-7.618927 0 -13.795273 -6.176361 -13.795273 -13.795258z" fill-rule="nonzero"></path><path fill="#cfe2f3" d="m117.40157 403.33597l0 0c0 -7.618927 6.1763535 -13.795288 13.79528 -13.795288l0 0c3.6587372 0 7.167618 1.4534302 9.75473 4.040558c2.5871124 2.5870972 4.0405426 6.095978 4.0405426 9.75473l0 0c0 7.6188965 -6.176361 13.795258 -13.795273 13.795258l0 0c-7.618927 0 -13.79528 -6.176361 -13.79528 -13.795258z" fill-rule="nonzero"></path><path stroke="#000000" stroke-width="2.0" stroke-linejoin="round" stroke-linecap="butt" d="m117.40157 403.33597l0 0c0 -7.618927 6.1763535 -13.795288 13.79528 -13.795288l0 0c3.6587372 0 7.167618 1.4534302 9.75473 4.040558c2.5871124 2.5870972 4.0405426 6.095978 4.0405426 9.75473l0 0c0 7.6188965 -6.176361 13.795258 -13.795273 13.795258l0 0c-7.618927 0 -13.79528 -6.176361 -13.79528 -13.795258z" fill-rule="nonzero"></path><path fill="#cfe2f3" d="m97.69292 447.8399l0 0c0 -7.618927 6.1763535 -13.795288 13.795273 -13.795288l0 0c3.6587372 0 7.167618 1.4534302 9.75473 4.040558c2.58712 2.5870972 4.0405426 6.095978 4.0405426 9.75473l0 0c0 7.6188965 -6.1763535 13.795258 -13.795273 13.795258l0 0c-7.6189194 0 -13.795273 -6.176361 -13.795273 -13.795258z" fill-rule="nonzero"></path><path stroke="#000000" stroke-width="2.0" stroke-linejoin="round" stroke-linecap="butt" d="m97.69292 447.8399l0 0c0 -7.618927 6.1763535 -13.795288 13.795273 -13.795288l0 0c3.6587372 0 7.167618 1.4534302 9.75473 4.040558c2.58712 2.5870972 4.0405426 6.095978 4.0405426 9.75473l0 0c0 7.6188965 -6.1763535 13.795258 -13.795273 13.795258l0 0c-7.6189194 0 -13.795273 -6.176361 -13.795273 -13.795258z" fill-rule="nonzero"></path><path fill="#cfe2f3" d="m55.884514 409.27036l0 0c0 -7.618927 6.1763573 -13.795288 13.795273 -13.795288l0 0c3.6587372 0 7.167618 1.4534302 9.754738 4.0405273c2.5871124 2.5871277 4.0405426 6.0960083 4.0405426 9.754761l0 0c0 7.6188965 -6.1763535 13.795258 -13.79528 13.795258l0 0c-7.6189156 0 -13.795273 -6.176361 -13.795273 -13.795258z" fill-rule="nonzero"></path><path stroke="#000000" stroke-width="2.0" stroke-linejoin="round" stroke-linecap="butt" d="m55.884514 409.27036l0 0c0 -7.618927 6.1763573 -13.795288 13.795273 -13.795288l0 0c3.6587372 0 7.167618 1.4534302 9.754738 4.0405273c2.5871124 2.5871277 4.0405426 6.0960083 4.0405426 9.754761l0 0c0 7.6188965 -6.1763535 13.795258 -13.79528 13.795258l0 0c-7.6189156 0 -13.795273 -6.176361 -13.795273 -13.795258z" fill-rule="nonzero"></path><path fill="#000000" fill-opacity="0.0" d="m59.925056 419.0251l0 0" fill-rule="nonzero"></path><path stroke="#000000" stroke-width="2.0" stroke-linejoin="round" stroke-linecap="butt" d="m59.925056 419.0251l0 0" fill-rule="nonzero"></path><path fill="#000000" fill-opacity="0.0" d="m59.925056 419.0251l0 0" fill-rule="nonzero"></path><path stroke="#000000" stroke-width="2.0" stroke-linejoin="round" stroke-linecap="butt" d="m59.925056 419.0251l0 0" fill-rule="nonzero"></path><path fill="#000000" fill-opacity="0.0" d="m59.925056 419.0251l0 0" fill-rule="nonzero"></path><path stroke="#000000" stroke-width="2.0" stroke-linejoin="round" stroke-linecap="butt" d="m59.925056 419.0251l0 0" fill-rule="nonzero"></path><path fill="#000000" fill-opacity="0.0" d="m192.71391 408.5958l0 0" fill-rule="nonzero"></path><path stroke="#000000" stroke-width="2.0" stroke-linejoin="round" stroke-linecap="butt" d="m192.71391 408.5958l0 0" fill-rule="nonzero"></path><path fill="#000000" fill-opacity="0.0" d="m192.71391 408.5958l0 0" fill-rule="nonzero"></path><path stroke="#000000" stroke-width="2.0" stroke-linejoin="round" stroke-linecap="butt" d="m192.71391 408.5958l0 0" fill-rule="nonzero"></path><path fill="#000000" fill-opacity="0.0" d="m202.46864 404.55527l-9.75473 4.0405273" fill-rule="nonzero"></path><path stroke="#000000" stroke-width="2.0" stroke-linejoin="round" stroke-linecap="butt" d="m202.46864 404.55527l-9.75473 4.0405273" fill-rule="nonzero"></path><path fill="#000000" fill-opacity="0.0" d="m192.71391 408.5958l9.75473 -4.0405273" fill-rule="nonzero"></path><path stroke="#000000" stroke-width="2.0" stroke-linejoin="round" stroke-linecap="butt" d="m192.71391 408.5958l9.75473 -4.0405273" fill-rule="nonzero"></path><path fill="#cfe2f3" d="m50.81365 394.80054l0 0c0 -5.4358826 4.2233315 -9.842529 9.433071 -9.842529l0 0c2.5018044 0 4.901146 1.0369873 6.670189 2.8828125c1.769043 1.8458252 2.7628784 4.349304 2.7628784 6.959717l0 0c0 5.435852 -4.2233276 9.842499 -9.433067 9.842499l0 0c-5.2097397 0 -9.433071 -4.4066467 -9.433071 -9.842499z" fill-rule="nonzero"></path><path stroke="#000000" stroke-width="2.0" stroke-linejoin="round" stroke-linecap="butt" d="m50.81365 394.80054l0 0c0 -5.4358826 4.2233315 -9.842529 9.433071 -9.842529l0 0c2.5018044 0 4.901146 1.0369873 6.670189 2.8828125c1.769043 1.8458252 2.7628784 4.349304 2.7628784 6.959717l0 0c0 5.435852 -4.2233276 9.842499 -9.433067 9.842499l0 0c-5.2097397 0 -9.433071 -4.4066467 -9.433071 -9.842499z" fill-rule="nonzero"></path><path fill="#cfe2f3" d="m128.66142 409.27036l0 0c0 -5.4358826 4.2233276 -9.842529 9.43306 -9.842529l0 0c2.5018158 0 4.9011536 1.0369873 6.6701965 2.8828125c1.769043 1.8458252 2.7628784 4.349304 2.7628784 6.959717l0 0c0 5.435852 -4.2233276 9.842499 -9.433075 9.842499l0 0c-5.209732 0 -9.43306 -4.4066467 -9.43306 -9.842499z" fill-rule="nonzero"></path><path stroke="#000000" stroke-width="2.0" stroke-linejoin="round" stroke-linecap="butt" d="m128.66142 409.27036l0 0c0 -5.4358826 4.2233276 -9.842529 9.43306 -9.842529l0 0c2.5018158 0 4.9011536 1.0369873 6.6701965 2.8828125c1.769043 1.8458252 2.7628784 4.349304 2.7628784 6.959717l0 0c0 5.435852 -4.2233276 9.842499 -9.433075 9.842499l0 0c-5.209732 0 -9.43306 -4.4066467 -9.43306 -9.842499z" fill-rule="nonzero"></path><path fill="#cfe2f3" d="m89.81102 451.79266l0 0c0 -5.4358826 4.2233353 -9.842529 9.433075 -9.842529l0 0c2.5018082 0 4.901146 1.0369873 6.670189 2.8828125c1.769043 1.8458252 2.7628784 4.349304 2.7628784 6.959717l0 0c0 5.435852 -4.2233276 9.842499 -9.433067 9.842499l0 0c-5.2097397 0 -9.433075 -4.4066467 -9.433075 -9.842499z" fill-rule="nonzero"></path><path stroke="#000000" stroke-width="2.0" stroke-linejoin="round" stroke-linecap="butt" d="m89.81102 451.79266l0 0c0 -5.4358826 4.2233353 -9.842529 9.433075 -9.842529l0 0c2.5018082 0 4.901146 1.0369873 6.670189 2.8828125c1.769043 1.8458252 2.7628784 4.349304 2.7628784 6.959717l0 0c0 5.435852 -4.2233276 9.842499 -9.433067 9.842499l0 0c-5.2097397 0 -9.433075 -4.4066467 -9.433075 -9.842499z" fill-rule="nonzero"></path><path fill="#cfe2f3" d="m192.71391 388.9895l0 0c0 -5.4358826 4.2233276 -9.842529 9.433075 -9.842529l0 0c2.5018005 0 4.9011383 1.0369873 6.6701813 2.8828125c1.769043 1.8458252 2.7628784 4.349304 2.7628784 6.959717l0 0c0 5.4358826 -4.2233276 9.842529 -9.43306 9.842529l0 0c-5.2097473 0 -9.433075 -4.4066467 -9.433075 -9.842529z" fill-rule="nonzero"></path><path stroke="#000000" stroke-width="2.0" stroke-linejoin="round" stroke-linecap="butt" d="m192.71391 388.9895l0 0c0 -5.4358826 4.2233276 -9.842529 9.433075 -9.842529l0 0c2.5018005 0 4.9011383 1.0369873 6.6701813 2.8828125c1.769043 1.8458252 2.7628784 4.349304 2.7628784 6.959717l0 0c0 5.4358826 -4.2233276 9.842529 -9.43306 9.842529l0 0c-5.2097473 0 -9.433075 -4.4066467 -9.433075 -9.842529z" fill-rule="nonzero"></path><path fill="#ffffff" d="m48.83048 396.97437l-8.409447 -10.078735l15.464565 4.188965z" fill-rule="nonzero"></path><path stroke="#000000" stroke-width="2.0" stroke-linejoin="round" stroke-linecap="butt" d="m48.83048 396.97437l-8.409447 -10.078735l15.464565 4.188965z" fill-rule="nonzero"></path><path fill="#ffffff" d="m103.44857 461.636l-3.826767 13.401581l-5.338585 -12.86615z" fill-rule="nonzero"></path><path stroke="#000000" stroke-width="2.0" stroke-linejoin="round" stroke-linecap="butt" d="m103.44857 461.636l-3.826767 13.401581l-5.338585 -12.86615z" fill-rule="nonzero"></path><path fill="#ffffff" d="m142.89839 411.2614l0.33070374 13.905487l-8.929138 -10.661407z" fill-rule="nonzero"></path><path stroke="#000000" stroke-width="2.0" stroke-linejoin="round" stroke-linecap="butt" d="m142.89839 411.2614l0.33070374 13.905487l-8.929138 -10.661407z" fill-rule="nonzero"></path><path fill="#ffffff" d="m202.47095 380.21088l10.8346405 -8.724396l-3.0236206 13.574799z" fill-rule="nonzero"></path><path stroke="#000000" stroke-width="2.0" stroke-linejoin="round" stroke-linecap="butt" d="m202.47095 380.21088l10.8346405 -8.724396l-3.0236206 13.574799z" fill-rule="nonzero"></path><path fill="#000000" fill-opacity="0.0" d="m65.69292 423.0656c-1.053482 3.1646423 -2.4494362 6.2141724 -3.9422607 9.196869" fill-rule="evenodd"></path><path stroke="#000000" stroke-width="2.0" stroke-linejoin="round" stroke-linecap="butt" d="m65.69292 423.0656c-1.053482 3.1646423 -2.4494362 6.2141724 -3.9422607 9.196869" fill-rule="evenodd"></path><path fill="#000000" fill-opacity="0.0" d="m121.343834 414.42783c-1.053482 3.1646423 -2.4494324 6.2141724 -3.9422607 9.196838" fill-rule="evenodd"></path><path stroke="#000000" stroke-width="2.0" stroke-linejoin="round" stroke-linecap="butt" d="m121.343834 414.42783c-1.053482 3.1646423 -2.4494324 6.2141724 -3.9422607 9.196838" fill-rule="evenodd"></path><path fill="#000000" fill-opacity="0.0" d="m182.86089 404.6719c-1.0534668 3.1646729 -2.4494324 6.214203 -3.9422455 9.196869" fill-rule="evenodd"></path><path stroke="#000000" stroke-width="2.0" stroke-linejoin="round" stroke-linecap="butt" d="m182.86089 404.6719c-1.0534668 3.1646729 -2.4494324 6.214203 -3.9422455 9.196869" fill-rule="evenodd"></path><path fill="#000000" fill-opacity="0.0" d="m114.12336 461.63516c-1.053482 3.1646729 -2.4494324 6.214203 -3.9422607 9.196869" fill-rule="evenodd"></path><path stroke="#000000" stroke-width="2.0" stroke-linejoin="round" stroke-linecap="butt" d="m114.12336 461.63516c-1.053482 3.1646729 -2.4494324 6.214203 -3.9422607 9.196869" fill-rule="evenodd"></path><path fill="#000000" fill-opacity="0.0" d="m108.14698 461.63516c-1.0534744 3.1646729 -2.4494324 6.214203 -3.942253 9.196869" fill-rule="evenodd"></path><path stroke="#000000" stroke-width="2.0" stroke-linejoin="round" stroke-linecap="butt" d="m108.14698 461.63516c-1.0534744 3.1646729 -2.4494324 6.214203 -3.942253 9.196869" fill-rule="evenodd"></path><path fill="#000000" fill-opacity="0.0" d="m199.375 417.79163c-1.5653534 -2.945282 -2.8111725 -6.0591736 -3.9417725 -9.197144" fill-rule="evenodd"></path><path stroke="#000000" stroke-width="2.0" stroke-linejoin="round" stroke-linecap="butt" d="m199.375 417.79163c-1.5653534 -2.945282 -2.8111725 -6.0591736 -3.9417725 -9.197144" fill-rule="evenodd"></path><path fill="#000000" fill-opacity="0.0" d="m128.49886 414.0731c0.74383545 3.2514954 1.1352234 6.5825195 1.4091034 9.906738" fill-rule="evenodd"></path><path stroke="#000000" stroke-width="2.0" stroke-linejoin="round" stroke-linecap="butt" d="m128.49886 414.0731c0.74383545 3.2514954 1.1352234 6.5825195 1.4091034 9.906738" fill-rule="evenodd"></path><path fill="#000000" fill-opacity="0.0" d="m69.23535 422.6807c0.5727768 3.2859192 0.7894211 6.632843 0.8890686 9.966827" fill-rule="evenodd"></path><path stroke="#000000" stroke-width="2.0" stroke-linejoin="round" stroke-linecap="butt" d="m69.23535 422.6807c0.5727768 3.2859192 0.7894211 6.632843 0.8890686 9.966827" fill-rule="evenodd"></path></g></svg>

