<?xml version="1.0" standalone="yes"?>

<svg version="1.1" viewBox="0.0 0.0 225.0 246.0" fill="none" stroke="none" stroke-linecap="square" stroke-miterlimit="10" xmlns="http://www.w3.org/2000/svg" xmlns:xlink="http://www.w3.org/1999/xlink"><clipPath id="p.0"><path d="m0 0l225.0 0l0 246.0l-225.0 0l0 -246.0z" clip-rule="nonzero"></path></clipPath><g clip-path="url(#p.0)"><path fill="#000000" fill-opacity="0.0" d="m0 0l225.5643 0l0 246.25722l-225.5643 0z" fill-rule="nonzero"></path><path fill="#cfe2f3" d="m139.4672 38.755905l0 0c0 -21.404295 12.937912 -38.755905 28.897629 -38.755905l0 0c7.664139 0 15.0143585 4.0832 20.433716 11.351342c5.4193726 7.2681417 8.463928 17.125858 8.463928 27.404564l0 0c0 21.404297 -12.937912 38.755905 -28.897644 38.755905l0 0c-15.959717 0 -28.897629 -17.351608 -28.897629 -38.755905z" fill-rule="nonzero"></path><path stroke="#000000" stroke-width="2.0" stroke-linejoin="round" stroke-linecap="butt" d="m139.4672 38.755905l0 0c0 -21.404295 12.937912 -38.755905 28.897629 -38.755905l0 0c7.664139 0 15.0143585 4.0832 20.433716 11.351342c5.4193726 7.2681417 8.463928 17.125858 8.463928 27.404564l0 0c0 21.404297 -12.937912 38.755905 -28.897644 38.755905l0 0c-15.959717 0 -28.897629 -17.351608 -28.897629 -38.755905z" fill-rule="nonzero"></path><path fill="#cfe2f3" d="m36.774433 100.64807l0 0c-1.1547318 -8.160309 2.6364822 -16.23851 9.764896 -20.80674c7.1284103 -4.568222 16.34385 -4.825302 23.735863 -0.6621475l0 0c2.6184769 -4.7447433 7.4110565 -8.020653 12.92807 -8.836845c5.517021 -0.8161926 11.110481 0.92321014 15.08847 4.6920624l0 0c2.230606 -4.3018875 6.610443 -7.1921997 11.585312 -7.645317c4.974869 -0.45310974 9.840706 1.5951004 12.870857 5.4178314l0 0c4.029915 -4.5599823 10.441612 -6.479927 16.460716 -4.929062c6.019104 1.5508728 10.564529 6.2940063 11.669434 12.177017l0 0c4.937332 1.2950592 9.050018 4.587265 11.275482 9.026009c2.2254791 4.438751 2.345398 9.588623 0.32881165 14.119041l0 0c4.8618164 6.084854 5.9991302 14.192841 2.9874878 21.298218c-3.0116425 7.105377 -9.719772 12.140625 -17.621033 13.226685c-0.05567932 6.6686554 -3.8589325 12.78772 -9.943817 15.998657c-6.0848694 3.2109375 -13.50119 3.0123444 -19.39038 -0.51924133c-2.508484 7.986862 -9.569031 13.86351 -18.131218 15.091034c-8.562195 1.2275085 -17.091087 -2.414154 -21.901886 -9.351685c-5.8970337 3.4195251 -12.972984 4.404587 -19.63166 2.732956c-6.6586723 -1.6716156 -12.33918 -5.8591156 -15.760109 -11.617859l0 0c-6.0260277 0.6781006 -11.852364 -2.324173 -14.5874195 -7.5168304c-2.735054 -5.1926575 -1.7966003 -11.470276 2.3496132 -15.717323l0 0c-5.375374 -3.0423737 -8.118214 -9.07946 -6.798237 -14.963158c1.3199787 -5.88369 6.4036617 -10.280724 12.600107 -10.898216z" fill-rule="nonzero"></path><path stroke="#000000" stroke-width="2.0" stroke-linejoin="round" stroke-linecap="butt" d="m36.774433 100.64807l0 0c-1.1547318 -8.160309 2.6364822 -16.23851 9.764896 -20.80674c7.1284103 -4.568222 16.34385 -4.825302 23.735863 -0.6621475l0 0c2.6184769 -4.7447433 7.4110565 -8.020653 12.92807 -8.836845c5.517021 -0.8161926 11.110481 0.92321014 15.08847 4.6920624l0 0c2.230606 -4.3018875 6.610443 -7.1921997 11.585312 -7.645317c4.974869 -0.45310974 9.840706 1.5951004 12.870857 5.4178314l0 0c4.029915 -4.5599823 10.441612 -6.479927 16.460716 -4.929062c6.019104 1.5508728 10.564529 6.2940063 11.669434 12.177017l0 0c4.937332 1.2950592 9.050018 4.587265 11.275482 9.026009c2.2254791 4.438751 2.345398 9.588623 0.32881165 14.119041l0 0c4.8618164 6.084854 5.9991302 14.192841 2.9874878 21.298218c-3.0116425 7.105377 -9.719772 12.140625 -17.621033 13.226685c-0.05567932 6.6686554 -3.8589325 12.78772 -9.943817 15.998657c-6.0848694 3.2109375 -13.50119 3.0123444 -19.39038 -0.51924133c-2.508484 7.986862 -9.569031 13.86351 -18.131218 15.091034c-8.562195 1.2275085 -17.091087 -2.414154 -21.901886 -9.351685c-5.8970337 3.4195251 -12.972984 4.404587 -19.63166 2.732956c-6.6586723 -1.6716156 -12.33918 -5.8591156 -15.760109 -11.617859l0 0c-6.0260277 0.6781006 -11.852364 -2.324173 -14.5874195 -7.5168304c-2.735054 -5.1926575 -1.7966003 -11.470276 2.3496132 -15.717323l0 0c-5.375374 -3.0423737 -8.118214 -9.07946 -6.798237 -14.963158c1.3199787 -5.88369 6.4036617 -10.280724 12.600107 -10.898216z" fill-rule="nonzero"></path><path fill="#000000" fill-opacity="0.0" d="m30.853443 126.82395l0 0c2.5366554 1.4357071 5.467087 2.0869827 8.397839 1.8663712m3.8386497 21.368301c1.2603302 -0.14183044 2.4956932 -0.44215393 3.6742325 -0.8932495m31.715778 9.777771c-0.88643646 -1.278305 -1.6286087 -2.6442719 -2.2138596 -4.0746613m42.24849 -1.664917l0 0c0.45733643 -1.456131 0.75364685 -2.9547882 0.88399506 -4.470993m28.449104 -11.007858c0.059280396 -7.0998077 -4.1341705 -13.600456 -10.779175 -16.70974m25.412567 -17.814423c-1.0761414 2.4176178 -2.718979 4.562256 -4.7997284 6.2657547m-6.8035583 -29.41143l0 0c0.18336487 0.97628784 0.268219 1.967247 0.2534027 2.9591446m-28.383064 -10.20681l0 0c-1.0052643 1.1374893 -1.8334732 2.4086227 -2.4588318 3.7738113m-21.997574 -1.5468216l0 0c-0.5357208 1.0331726 -0.9357605 2.1264496 -1.1909027 3.2546387m-26.826042 0.8902283l0 0c1.5641403 0.8809204 3.0111923 1.9412003 4.309349 3.1575546m-37.80968 18.311447l0 0c0.15915298 1.1246948 0.41062164 2.2355347 0.7520523 3.3221054" fill-rule="nonzero"></path><path stroke="#000000" stroke-width="2.0" stroke-linejoin="round" stroke-linecap="butt" d="m30.853443 126.82395l0 0c2.5366554 1.4357071 5.467087 2.0869827 8.397839 1.8663712m3.8386497 21.368301c1.2603302 -0.14183044 2.4956932 -0.44215393 3.6742325 -0.8932495m31.715778 9.777771c-0.88643646 -1.278305 -1.6286087 -2.6442719 -2.2138596 -4.0746613m42.24849 -1.664917l0 0c0.45733643 -1.456131 0.75364685 -2.9547882 0.88399506 -4.470993m28.449104 -11.007858c0.059280396 -7.0998077 -4.1341705 -13.600456 -10.779175 -16.70974m25.412567 -17.814423c-1.0761414 2.4176178 -2.718979 4.562256 -4.7997284 6.2657547m-6.8035583 -29.41143l0 0c0.18336487 0.97628784 0.268219 1.967247 0.2534027 2.9591446m-28.383064 -10.20681l0 0c-1.0052643 1.1374893 -1.8334732 2.4086227 -2.4588318 3.7738113m-21.997574 -1.5468216l0 0c-0.5357208 1.0331726 -0.9357605 2.1264496 -1.1909027 3.2546387m-26.826042 0.8902283l0 0c1.5641403 0.8809204 3.0111923 1.9412003 4.309349 3.1575546m-37.80968 18.311447l0 0c0.15915298 1.1246948 0.41062164 2.2355347 0.7520523 3.3221054" fill-rule="nonzero"></path><path fill="#cfe2f3" d="m199.26587 38.49143l11.622055 15.858269l-17.921265 8.173229z" fill-rule="nonzero"></path><path stroke="#000000" stroke-width="2.0" stroke-linejoin="round" stroke-linecap="butt" d="m199.26587 38.49143l11.622055 15.858269l-17.921265 8.173229z" fill-rule="nonzero"></path><path fill="#f3f3f3" d="m157.82939 33.498688l0 0c0 -7.697197 4.716873 -13.937008 10.535431 -13.937008l0 0c2.7941742 0 5.4739075 1.468359 7.4496765 4.082054c1.9757843 2.613697 3.0857697 6.1586285 3.0857697 9.854954l0 0c0 7.697197 -4.716873 13.937008 -10.535446 13.937008l0 0c-5.8185577 0 -10.535431 -6.239811 -10.535431 -13.937008z" fill-rule="nonzero"></path><path stroke="#000000" stroke-width="2.0" stroke-linejoin="round" stroke-linecap="butt" d="m157.82939 33.498688l0 0c0 -7.697197 4.716873 -13.937008 10.535431 -13.937008l0 0c2.7941742 0 5.4739075 1.468359 7.4496765 4.082054c1.9757843 2.613697 3.0857697 6.1586285 3.0857697 9.854954l0 0c0 7.697197 -4.716873 13.937008 -10.535446 13.937008l0 0c-5.8185577 0 -10.535431 -6.239811 -10.535431 -13.937008z" fill-rule="nonzero"></path><path fill="#cfe2f3" d="m61.254593 184.8714l0 0c0 -0.36239624 0.29378128 -0.6561737 0.65618134 -0.6561737l2.624649 0l0 0c0.17402649 0 0.34092712 0.06913757 0.46398926 0.19218445c0.123054504 0.123062134 0.19219208 0.28996277 0.19219208 0.46398926l0 38.08922c0 0.36239624 -0.2937851 0.6561737 -0.65618134 0.6561737l-2.624649 0c-0.36240005 0 -0.65618134 -0.29377747 -0.65618134 -0.6561737z" fill-rule="nonzero"></path><path stroke="#000000" stroke-width="2.0" stroke-linejoin="round" stroke-linecap="butt" d="m61.254593 184.8714l0 0c0 -0.36239624 0.29378128 -0.6561737 0.65618134 -0.6561737l2.624649 0l0 0c0.17402649 0 0.34092712 0.06913757 0.46398926 0.19218445c0.123054504 0.123062134 0.19219208 0.28996277 0.19219208 0.46398926l0 38.08922c0 0.36239624 -0.2937851 0.6561737 -0.65618134 0.6561737l-2.624649 0c-0.36240005 0 -0.65618134 -0.29377747 -0.65618134 -0.6561737z" fill-rule="nonzero"></path><path fill="#cfe2f3" d="m93.485565 192.08138l0 0c0 -0.36239624 0.2937851 -0.6561737 0.65618134 -0.6561737l2.6246414 0l0 0c0.17403412 0 0.34093475 0.069122314 0.4639969 0.19218445c0.123054504 0.123062134 0.19218445 0.28996277 0.19218445 0.46398926l0 38.08922c0 0.36239624 -0.29377747 0.6561737 -0.65618134 0.6561737l-2.6246414 0c-0.36239624 0 -0.65618134 -0.29377747 -0.65618134 -0.6561737z" fill-rule="nonzero"></path><path stroke="#000000" stroke-width="2.0" stroke-linejoin="round" stroke-linecap="butt" d="m93.485565 192.08138l0 0c0 -0.36239624 0.2937851 -0.6561737 0.65618134 -0.6561737l2.6246414 0l0 0c0.17403412 0 0.34093475 0.069122314 0.4639969 0.19218445c0.123054504 0.123062134 0.19218445 0.28996277 0.19218445 0.46398926l0 38.08922c0 0.36239624 -0.29377747 0.6561737 -0.65618134 0.6561737l-2.6246414 0c-0.36239624 0 -0.65618134 -0.29377747 -0.65618134 -0.6561737z" fill-rule="nonzero"></path><path fill="#cfe2f3" d="m48.454678 105.06712l0 0c-0.6779747 -3.1783295 1.5479507 -6.3246765 5.7332344 -8.103943c4.18528 -1.7792664 9.595913 -1.8793945 13.9359665 -0.25789642l0 0c1.5373764 -1.8480148 4.351227 -3.1239395 7.590416 -3.4418335c3.2391891 -0.31789398 6.523262 0.35957336 8.858849 1.8274918l0 0c1.3096466 -1.6755219 3.8811646 -2.801262 6.8020477 -2.977745c2.9208755 -0.17648315 5.7777405 0.6212692 7.5568237 2.1101685l0 0c2.3660736 -1.7760544 6.130554 -2.5238419 9.664528 -1.9197998c3.5339813 0.60404205 6.2027206 2.4514313 6.8514404 4.7427826l0 0c2.8988419 0.5044098 5.3135147 1.7866821 6.62014 3.5155106c1.306633 1.728836 1.3770447 3.734642 0.19304657 5.499176l0 0c2.854515 2.3699722 3.522255 5.5279236 1.754036 8.295372c-1.7682114 2.7674484 -5.7067337 4.728615 -10.345772 5.1516266c-0.032699585 2.5973434 -2.2656937 4.980644 -5.8382874 6.2312546c-3.572586 1.250618 -7.9269104 1.1732712 -11.384613 -0.20223236c-1.4728012 3.1107712 -5.6182404 5.3996506 -10.645332 5.877754c-5.027092 0.47810364 -10.03463 -0.9402771 -12.859184 -3.6423569c-3.4623032 1.3318558 -7.616783 1.7155228 -11.526272 1.0644455c-3.9094887 -0.651062 -7.244667 -2.2820435 -9.253185 -4.5250015l0 0c-3.538044 0.26411438 -6.958843 -0.9052353 -8.564667 -2.9277039c-1.6058235 -2.0224686 -1.0548325 -4.467514 1.3795204 -6.121681l0 0c-3.1560287 -1.184967 -4.7664223 -3.5363312 -3.9914284 -5.8279495c0.7749939 -2.291626 3.7597618 -4.0042114 7.3978615 -4.244713z" fill-rule="nonzero"></path><path stroke="#000000" stroke-width="2.0" stroke-linejoin="round" stroke-linecap="butt" d="m48.454678 105.06712l0 0c-0.6779747 -3.1783295 1.5479507 -6.3246765 5.7332344 -8.103943c4.18528 -1.7792664 9.595913 -1.8793945 13.9359665 -0.25789642l0 0c1.5373764 -1.8480148 4.351227 -3.1239395 7.590416 -3.4418335c3.2391891 -0.31789398 6.523262 0.35957336 8.858849 1.8274918l0 0c1.3096466 -1.6755219 3.8811646 -2.801262 6.8020477 -2.977745c2.9208755 -0.17648315 5.7777405 0.6212692 7.5568237 2.1101685l0 0c2.3660736 -1.7760544 6.130554 -2.5238419 9.664528 -1.9197998c3.5339813 0.60404205 6.2027206 2.4514313 6.8514404 4.7427826l0 0c2.8988419 0.5044098 5.3135147 1.7866821 6.62014 3.5155106c1.306633 1.728836 1.3770447 3.734642 0.19304657 5.499176l0 0c2.854515 2.3699722 3.522255 5.5279236 1.754036 8.295372c-1.7682114 2.7674484 -5.7067337 4.728615 -10.345772 5.1516266c-0.032699585 2.5973434 -2.2656937 4.980644 -5.8382874 6.2312546c-3.572586 1.250618 -7.9269104 1.1732712 -11.384613 -0.20223236c-1.4728012 3.1107712 -5.6182404 5.3996506 -10.645332 5.877754c-5.027092 0.47810364 -10.03463 -0.9402771 -12.859184 -3.6423569c-3.4623032 1.3318558 -7.616783 1.7155228 -11.526272 1.0644455c-3.9094887 -0.651062 -7.244667 -2.2820435 -9.253185 -4.5250015l0 0c-3.538044 0.26411438 -6.958843 -0.9052353 -8.564667 -2.9277039c-1.6058235 -2.0224686 -1.0548325 -4.467514 1.3795204 -6.121681l0 0c-3.1560287 -1.184967 -4.7664223 -3.5363312 -3.9914284 -5.8279495c0.7749939 -2.291626 3.7597618 -4.0042114 7.3978615 -4.244713z" fill-rule="nonzero"></path><path fill="#000000" fill-opacity="0.0" d="m44.978306 115.26228l0 0c1.4893379 0.55918884 3.2098732 0.81285095 4.9305954 0.7269287m2.2537766 8.322662c0.739975 -0.055236816 1.4652901 -0.1722107 2.157238 -0.34790802m18.621185 3.808319c-0.5204468 -0.49788666 -0.956192 -1.0299149 -1.2998123 -1.5870285m24.805222 -0.648468l0 0c0.26851654 -0.5671387 0.44248962 -1.1508484 0.5190201 -1.741394m16.703232 -4.287407c0.034812927 -2.7652817 -2.4272842 -5.2971954 -6.328743 -6.5082245m14.920403 -6.9384766c-0.6318283 0.9416275 -1.5963898 1.7769318 -2.8180466 2.440422m-3.9945526 -11.45536l0 0c0.107658386 0.38025665 0.15747833 0.7662201 0.14878082 1.1525497m-16.664467 -3.9754105l0 0c-0.5902176 0.4430313 -1.076477 0.9381256 -1.4436417 1.4698486m-12.915367 -0.6024704l0 0c-0.31453705 0.4024048 -0.54940796 0.8282242 -0.6992111 1.2676392m-15.750298 0.3467331l0 0c0.91835785 0.3431015 1.767952 0.756073 2.5301437 1.2298203m-22.199085 7.132065l0 0c0.09344101 0.43805695 0.24108505 0.8707123 0.4415512 1.2939224" fill-rule="nonzero"></path><path stroke="#000000" stroke-width="2.0" stroke-linejoin="round" stroke-linecap="butt" d="m44.978306 115.26228l0 0c1.4893379 0.55918884 3.2098732 0.81285095 4.9305954 0.7269287m2.2537766 8.322662c0.739975 -0.055236816 1.4652901 -0.1722107 2.157238 -0.34790802m18.621185 3.808319c-0.5204468 -0.49788666 -0.956192 -1.0299149 -1.2998123 -1.5870285m24.805222 -0.648468l0 0c0.26851654 -0.5671387 0.44248962 -1.1508484 0.5190201 -1.741394m16.703232 -4.287407c0.034812927 -2.7652817 -2.4272842 -5.2971954 -6.328743 -6.5082245m14.920403 -6.9384766c-0.6318283 0.9416275 -1.5963898 1.7769318 -2.8180466 2.440422m-3.9945526 -11.45536l0 0c0.107658386 0.38025665 0.15747833 0.7662201 0.14878082 1.1525497m-16.664467 -3.9754105l0 0c-0.5902176 0.4430313 -1.076477 0.9381256 -1.4436417 1.4698486m-12.915367 -0.6024704l0 0c-0.31453705 0.4024048 -0.54940796 0.8282242 -0.6992111 1.2676392m-15.750298 0.3467331l0 0c0.91835785 0.3431015 1.767952 0.756073 2.5301437 1.2298203m-22.199085 7.132065l0 0c0.09344101 0.43805695 0.24108505 0.8707123 0.4415512 1.2939224" fill-rule="nonzero"></path><path fill="#cfe2f3" d="m34.32546 234.10498l28.89764 -10.48819l28.897636 10.48819z" fill-rule="nonzero"></path><path stroke="#000000" stroke-width="2.0" stroke-linejoin="round" stroke-linecap="butt" d="m34.32546 234.10498l28.89764 -10.48819l28.897636 10.48819z" fill-rule="nonzero"></path><path fill="#cfe2f3" d="m66.55643 234.10498l28.897644 -10.48819l28.897636 10.48819z" fill-rule="nonzero"></path><path stroke="#000000" stroke-width="2.0" stroke-linejoin="round" stroke-linecap="butt" d="m66.55643 234.10498l28.897644 -10.48819l28.897636 10.48819z" fill-rule="nonzero"></path><path fill="#cfe2f3" d="m54.590866 165.61456l0 0c-0.16986084 -2.2481537 0.3878212 -4.473694 1.4364014 -5.732239c1.0485764 -1.2585449 2.404152 -1.329361 3.4915085 -0.18241882l0 0c0.3851738 -1.3071747 1.0901527 -2.2096863 1.9016991 -2.4345398c0.8115425 -0.22485352 1.6343307 0.25434875 2.21949 1.2926636l0 0c0.32811737 -1.1851654 0.9723854 -1.9814453 1.7041817 -2.1062775c0.73178864 -0.12483215 1.4475479 0.43943787 1.89328 1.4925995l0 0c0.5927963 -1.2562714 1.5359421 -1.7852173 2.4213486 -1.3579407c0.88539886 0.42726135 1.5540237 1.7339783 1.7165527 3.3547516l0 0c0.7262726 0.356781 1.3312454 1.2637787 1.6586075 2.4866486c0.32736206 1.2228699 0.34500122 2.6416473 0.048362732 3.8897858l0 0c0.7151718 1.6763611 0.88246155 3.9101105 0.43945312 5.86763c-0.44300842 1.9575195 -1.4297562 3.3447266 -2.5920181 3.6439362c-0.00819397 1.837204 -0.56764984 3.522995 -1.4627228 4.407608c-0.89507294 0.88461304 -1.9860077 0.829895 -2.852295 -0.14305115c-0.36899567 2.2003632 -1.4075928 3.8193817 -2.6670723 4.1575623c-1.2594872 0.33818054 -2.5140724 -0.6651001 -3.221733 -2.5763855c-0.8674469 0.94207764 -1.9083061 1.2134552 -2.8877869 0.7529297c-0.97948074 -0.4605255 -1.8150749 -1.6141815 -2.318287 -3.200714l0 0c-0.8864174 0.18682861 -1.7434654 -0.64030457 -2.1457863 -2.0708618c-0.40232086 -1.4305725 -0.2642784 -3.1600494 0.34562302 -4.3301086l0 0c-0.79070663 -0.8381653 -1.1941757 -2.5013885 -1.0000076 -4.1223297c0.19416428 -1.6209564 0.941967 -2.8323364 1.8534546 -3.0024414z" fill-rule="nonzero"></path><path stroke="#000000" stroke-width="2.0" stroke-linejoin="round" stroke-linecap="butt" d="m54.590866 165.61456l0 0c-0.16986084 -2.2481537 0.3878212 -4.473694 1.4364014 -5.732239c1.0485764 -1.2585449 2.404152 -1.329361 3.4915085 -0.18241882l0 0c0.3851738 -1.3071747 1.0901527 -2.2096863 1.9016991 -2.4345398c0.8115425 -0.22485352 1.6343307 0.25434875 2.21949 1.2926636l0 0c0.32811737 -1.1851654 0.9723854 -1.9814453 1.7041817 -2.1062775c0.73178864 -0.12483215 1.4475479 0.43943787 1.89328 1.4925995l0 0c0.5927963 -1.2562714 1.5359421 -1.7852173 2.4213486 -1.3579407c0.88539886 0.42726135 1.5540237 1.7339783 1.7165527 3.3547516l0 0c0.7262726 0.356781 1.3312454 1.2637787 1.6586075 2.4866486c0.32736206 1.2228699 0.34500122 2.6416473 0.048362732 3.8897858l0 0c0.7151718 1.6763611 0.88246155 3.9101105 0.43945312 5.86763c-0.44300842 1.9575195 -1.4297562 3.3447266 -2.5920181 3.6439362c-0.00819397 1.837204 -0.56764984 3.522995 -1.4627228 4.407608c-0.89507294 0.88461304 -1.9860077 0.829895 -2.852295 -0.14305115c-0.36899567 2.2003632 -1.4075928 3.8193817 -2.6670723 4.1575623c-1.2594872 0.33818054 -2.5140724 -0.6651001 -3.221733 -2.5763855c-0.8674469 0.94207764 -1.9083061 1.2134552 -2.8877869 0.7529297c-0.97948074 -0.4605255 -1.8150749 -1.6141815 -2.318287 -3.200714l0 0c-0.8864174 0.18682861 -1.7434654 -0.64030457 -2.1457863 -2.0708618c-0.40232086 -1.4305725 -0.2642784 -3.1600494 0.34562302 -4.3301086l0 0c-0.79070663 -0.8381653 -1.1941757 -2.5013885 -1.0000076 -4.1223297c0.19416428 -1.6209564 0.941967 -2.8323364 1.8534546 -3.0024414z" fill-rule="nonzero"></path><path fill="#000000" fill-opacity="0.0" d="m53.7199 172.82597l0 0c0.37313843 0.39553833 0.8041992 0.57496643 1.2353096 0.5141907m0.5646591 5.8869324c0.18539047 -0.0390625 0.3671112 -0.12181091 0.54047394 -0.24607849m4.6653404 2.693756c-0.13039398 -0.3521576 -0.2395668 -0.7284851 -0.3256569 -1.1225586m6.2146835 -0.4586792l0 0c0.067276 -0.40116882 0.11086273 -0.81404114 0.1300354 -1.2317657m4.184822 -3.0326385c0.008720398 -1.9559937 -0.6081314 -3.7469177 -1.5856018 -4.6035156m3.738144 -4.907852c-0.15829468 0.66604614 -0.39995575 1.256897 -0.70602417 1.7262115m-1.0007935 -8.102814l0 0c0.02696991 0.26896667 0.0394516 0.5419769 0.037269592 0.8152313m-4.175102 -2.8119507l0 0c-0.14787292 0.31336975 -0.2696991 0.66355896 -0.3616867 1.0396729m-3.2358093 -0.42614746l0 0c-0.078804016 0.28463745 -0.13764954 0.5858307 -0.17518234 0.8966522m-3.9460678 0.24525452l0 0c0.23008347 0.24269104 0.44294357 0.53479004 0.6338997 0.86990356m-5.5617447 5.0447845l0 0c0.023410797 0.30984497 0.060401917 0.61587524 0.11062622 0.9152374" fill-rule="nonzero"></path><path stroke="#000000" stroke-width="2.0" stroke-linejoin="round" stroke-linecap="butt" d="m53.7199 172.82597l0 0c0.37313843 0.39553833 0.8041992 0.57496643 1.2353096 0.5141907m0.5646591 5.8869324c0.18539047 -0.0390625 0.3671112 -0.12181091 0.54047394 -0.24607849m4.6653404 2.693756c-0.13039398 -0.3521576 -0.2395668 -0.7284851 -0.3256569 -1.1225586m6.2146835 -0.4586792l0 0c0.067276 -0.40116882 0.11086273 -0.81404114 0.1300354 -1.2317657m4.184822 -3.0326385c0.008720398 -1.9559937 -0.6081314 -3.7469177 -1.5856018 -4.6035156m3.738144 -4.907852c-0.15829468 0.66604614 -0.39995575 1.256897 -0.70602417 1.7262115m-1.0007935 -8.102814l0 0c0.02696991 0.26896667 0.0394516 0.5419769 0.037269592 0.8152313m-4.175102 -2.8119507l0 0c-0.14787292 0.31336975 -0.2696991 0.66355896 -0.3616867 1.0396729m-3.2358093 -0.42614746l0 0c-0.078804016 0.28463745 -0.13764954 0.5858307 -0.17518234 0.8966522m-3.9460678 0.24525452l0 0c0.23008347 0.24269104 0.44294357 0.53479004 0.6338997 0.86990356m-5.5617447 5.0447845l0 0c0.023410797 0.30984497 0.060401917 0.61587524 0.11062622 0.9152374" fill-rule="nonzero"></path><path fill="#cfe2f3" d="m86.82184 172.82452l0 0c-0.16986084 -2.2481537 0.387825 -4.4736786 1.4364014 -5.7322235c1.0485764 -1.2585449 2.404152 -1.329361 3.4915085 -0.18241882l0 0c0.38516998 -1.3071747 1.0901489 -2.2096863 1.9016953 -2.4345398c0.8115463 -0.22486877 1.6343384 0.2543335 2.21949 1.2926483l0 0c0.32811737 -1.1851501 0.9723892 -1.98143 1.7041779 -2.1062622c0.73179626 -0.12483215 1.4475555 0.43943787 1.8932877 1.4925995l0 0c0.5927963 -1.2562714 1.5359421 -1.7852173 2.421341 -1.3579559c0.8854065 0.42726135 1.5540237 1.7339935 1.7165604 3.3547516l0 0c0.7262726 0.35679626 1.3312454 1.263794 1.6586075 2.4866638c0.32736206 1.2228699 0.34500122 2.6416473 0.048362732 3.8897705l0 0c0.7151642 1.6763763 0.88246155 3.9101105 0.43945312 5.86763c-0.44300842 1.9575348 -1.4297638 3.3447418 -2.5920258 3.6439514c-0.00818634 1.837204 -0.5676422 3.522995 -1.4627151 4.407608c-0.89507294 0.8845978 -1.9860077 0.829895 -2.852295 -0.14305115c-0.36899567 2.2003632 -1.4075928 3.8193817 -2.667076 4.1575623c-1.2594833 0.33816528 -2.5140686 -0.6651001 -3.221733 -2.5763855c-0.86743927 0.94207764 -1.9083023 1.2134552 -2.8877869 0.7529297c-0.9794769 -0.4605255 -1.8150711 -1.6141815 -2.318283 -3.200714l0 0c-0.8864212 0.18682861 -1.7434616 -0.64030457 -2.14579 -2.070877c-0.40232086 -1.4305573 -0.2642746 -3.1600494 0.34562683 -4.3300934l0 0c-0.79071045 -0.83818054 -1.1941757 -2.5013885 -1.0000076 -4.1223297c0.19416809 -1.6209564 0.9419632 -2.8323364 1.8534546 -3.0024567z" fill-rule="nonzero"></path><path stroke="#000000" stroke-width="2.0" stroke-linejoin="round" stroke-linecap="butt" d="m86.82184 172.82452l0 0c-0.16986084 -2.2481537 0.387825 -4.4736786 1.4364014 -5.7322235c1.0485764 -1.2585449 2.404152 -1.329361 3.4915085 -0.18241882l0 0c0.38516998 -1.3071747 1.0901489 -2.2096863 1.9016953 -2.4345398c0.8115463 -0.22486877 1.6343384 0.2543335 2.21949 1.2926483l0 0c0.32811737 -1.1851501 0.9723892 -1.98143 1.7041779 -2.1062622c0.73179626 -0.12483215 1.4475555 0.43943787 1.8932877 1.4925995l0 0c0.5927963 -1.2562714 1.5359421 -1.7852173 2.421341 -1.3579559c0.8854065 0.42726135 1.5540237 1.7339935 1.7165604 3.3547516l0 0c0.7262726 0.35679626 1.3312454 1.263794 1.6586075 2.4866638c0.32736206 1.2228699 0.34500122 2.6416473 0.048362732 3.8897705l0 0c0.7151642 1.6763763 0.88246155 3.9101105 0.43945312 5.86763c-0.44300842 1.9575348 -1.4297638 3.3447418 -2.5920258 3.6439514c-0.00818634 1.837204 -0.5676422 3.522995 -1.4627151 4.407608c-0.89507294 0.8845978 -1.9860077 0.829895 -2.852295 -0.14305115c-0.36899567 2.2003632 -1.4075928 3.8193817 -2.667076 4.1575623c-1.2594833 0.33816528 -2.5140686 -0.6651001 -3.221733 -2.5763855c-0.86743927 0.94207764 -1.9083023 1.2134552 -2.8877869 0.7529297c-0.9794769 -0.4605255 -1.8150711 -1.6141815 -2.318283 -3.200714l0 0c-0.8864212 0.18682861 -1.7434616 -0.64030457 -2.14579 -2.070877c-0.40232086 -1.4305573 -0.2642746 -3.1600494 0.34562683 -4.3300934l0 0c-0.79071045 -0.83818054 -1.1941757 -2.5013885 -1.0000076 -4.1223297c0.19416809 -1.6209564 0.9419632 -2.8323364 1.8534546 -3.0024567z" fill-rule="nonzero"></path><path fill="#000000" fill-opacity="0.0" d="m85.95087 180.03595l0 0c0.37313843 0.39553833 0.8041992 0.57496643 1.2353134 0.5141907m0.5646591 5.8869324c0.18539429 -0.0390625 0.3671112 -0.12181091 0.54047394 -0.24607849m4.6653366 2.693756c-0.13039398 -0.35217285 -0.23956299 -0.72850037 -0.32565308 -1.1225586m6.2146835 -0.4586792l0 0c0.067276 -0.40116882 0.11086273 -0.81404114 0.1300354 -1.2317657m4.1848145 -3.0326385c0.008728027 -1.9559937 -0.6081238 -3.7469177 -1.5855942 -4.6035156m3.738144 -4.907852c-0.15829468 0.66604614 -0.39995575 1.256897 -0.7060318 1.7261963m-1.0007935 -8.102798l0 0c0.026977539 0.26895142 0.03945923 0.54196167 0.03727722 0.8152313m-4.175102 -2.811966l0 0c-0.14787292 0.313385 -0.2696991 0.6635742 -0.3616867 1.0396881m-3.2358093 -0.42614746l0 0c-0.078804016 0.28463745 -0.13764954 0.5858307 -0.17518616 0.8966522m-3.9460678 0.24525452l0 0c0.23008728 0.24269104 0.4429474 0.53479004 0.6339035 0.86990356m-5.5617447 5.0447693l0 0c0.023406982 0.30986023 0.060401917 0.6158905 0.11062622 0.9152374" fill-rule="nonzero"></path><path stroke="#000000" stroke-width="2.0" stroke-linejoin="round" stroke-linecap="butt" d="m85.95087 180.03595l0 0c0.37313843 0.39553833 0.8041992 0.57496643 1.2353134 0.5141907m0.5646591 5.8869324c0.18539429 -0.0390625 0.3671112 -0.12181091 0.54047394 -0.24607849m4.6653366 2.693756c-0.13039398 -0.35217285 -0.23956299 -0.72850037 -0.32565308 -1.1225586m6.2146835 -0.4586792l0 0c0.067276 -0.40116882 0.11086273 -0.81404114 0.1300354 -1.2317657m4.1848145 -3.0326385c0.008728027 -1.9559937 -0.6081238 -3.7469177 -1.5855942 -4.6035156m3.738144 -4.907852c-0.15829468 0.66604614 -0.39995575 1.256897 -0.7060318 1.7261963m-1.0007935 -8.102798l0 0c0.026977539 0.26895142 0.03945923 0.54196167 0.03727722 0.8152313m-4.175102 -2.811966l0 0c-0.14787292 0.313385 -0.2696991 0.6635742 -0.3616867 1.0396881m-3.2358093 -0.42614746l0 0c-0.078804016 0.28463745 -0.13764954 0.5858307 -0.17518616 0.8966522m-3.9460678 0.24525452l0 0c0.23008728 0.24269104 0.4429474 0.53479004 0.6339035 0.86990356m-5.5617447 5.0447693l0 0c0.023406982 0.30986023 0.060401917 0.6158905 0.11062622 0.9152374" fill-rule="nonzero"></path><path fill="#000000" d="m163.7664 33.498688l0 0c0 -2.8962326 2.058792 -5.244095 4.598419 -5.244095l0 0c1.2195892 0 2.389206 0.5525017 3.251587 1.5359592c0.8623657 0.9834595 1.3468475 2.317316 1.3468475 3.7081356l0 0c0 2.8962326 -2.058792 5.244095 -4.5984344 5.244095l0 0c-2.539627 0 -4.598419 -2.3478622 -4.598419 -5.244095z" fill-rule="nonzero"></path><path stroke="#000000" stroke-width="2.0" stroke-linejoin="round" stroke-linecap="butt" d="m163.7664 33.498688l0 0c0 -2.8962326 2.058792 -5.244095 4.598419 -5.244095l0 0c1.2195892 0 2.389206 0.5525017 3.251587 1.5359592c0.8623657 0.9834595 1.3468475 2.317316 1.3468475 3.7081356l0 0c0 2.8962326 -2.058792 5.244095 -4.5984344 5.244095l0 0c-2.539627 0 -4.598419 -2.3478622 -4.598419 -5.244095z" fill-rule="nonzero"></path><path fill="#cfe2f3" d="m31.604164 88.034454l0 0c1.9981194 2.8882523 3.360077 6.1310654 3.507946 8.352394c0.1478653 2.2213364 -0.94429016 3.0316086 -2.8130264 2.086998l0 0c0.7510414 1.9351196 0.89694214 3.5032349 0.39356232 4.2300186c-0.503376 0.72678375 -1.5969028 0.5268707 -2.949812 -0.5392685l0 0c0.69885445 1.7433548 0.8086815 3.1386566 0.29050446 3.6907883c-0.51817703 0.55213165 -1.5910206 0.18295288 -2.8378315 -0.9765396l0 0c0.53284836 1.9774323 0.16853142 3.1765823 -0.93530655 3.0785599c-1.103838 -0.09801483 -2.7489376 -1.4755936 -4.2234573 -3.536644l0 0c-0.9106598 -0.088768005 -2.1720943 -0.9704819 -3.458393 -2.4173431c-1.2862968 -1.4468613 -2.4712753 -3.3169327 -3.2487726 -5.1270447l0 0c-1.9894314 -1.8426285 -3.9734898 -4.7131424 -5.2117596 -7.5403214c-1.2382698 -2.827179 -1.5447159 -5.1862717 -0.80497646 -6.196907c-1.5081043 -2.4379883 -2.4234614 -4.966774 -2.393252 -6.611641c0.030209541 -1.6448746 1.0012679 -2.1489792 2.5388865 -1.3180237c-1.5013552 -3.1097488 -1.9549594 -5.803299 -1.1648378 -6.916939c0.7901211 -1.1136475 2.6823235 -0.44773102 4.859104 1.7100372c-0.0406332 -1.7063904 0.6190138 -2.6159973 1.8301382 -2.5236359c1.2111235 0.09236145 2.871705 1.1789169 4.607152 3.014557l0 0c0.598299 -0.7159653 2.0078182 -0.073280334 3.5290184 1.6090927c1.5212002 1.682373 2.8302555 4.046295 3.277485 5.918564l0 0c1.3623257 0.6923752 3.0763454 2.682312 4.248268 4.932129c1.1719227 2.2498245 1.5361843 4.24971 0.90283585 4.9568024z" fill-rule="nonzero"></path><path stroke="#000000" stroke-width="2.0" stroke-linejoin="round" stroke-linecap="butt" d="m31.604164 88.034454l0 0c1.9981194 2.8882523 3.360077 6.1310654 3.507946 8.352394c0.1478653 2.2213364 -0.94429016 3.0316086 -2.8130264 2.086998l0 0c0.7510414 1.9351196 0.89694214 3.5032349 0.39356232 4.2300186c-0.503376 0.72678375 -1.5969028 0.5268707 -2.949812 -0.5392685l0 0c0.69885445 1.7433548 0.8086815 3.1386566 0.29050446 3.6907883c-0.51817703 0.55213165 -1.5910206 0.18295288 -2.8378315 -0.9765396l0 0c0.53284836 1.9774323 0.16853142 3.1765823 -0.93530655 3.0785599c-1.103838 -0.09801483 -2.7489376 -1.4755936 -4.2234573 -3.536644l0 0c-0.9106598 -0.088768005 -2.1720943 -0.9704819 -3.458393 -2.4173431c-1.2862968 -1.4468613 -2.4712753 -3.3169327 -3.2487726 -5.1270447l0 0c-1.9894314 -1.8426285 -3.9734898 -4.7131424 -5.2117596 -7.5403214c-1.2382698 -2.827179 -1.5447159 -5.1862717 -0.80497646 -6.196907c-1.5081043 -2.4379883 -2.4234614 -4.966774 -2.393252 -6.611641c0.030209541 -1.6448746 1.0012679 -2.1489792 2.5388865 -1.3180237c-1.5013552 -3.1097488 -1.9549594 -5.803299 -1.1648378 -6.916939c0.7901211 -1.1136475 2.6823235 -0.44773102 4.859104 1.7100372c-0.0406332 -1.7063904 0.6190138 -2.6159973 1.8301382 -2.5236359c1.2111235 0.09236145 2.871705 1.1789169 4.607152 3.014557l0 0c0.598299 -0.7159653 2.0078182 -0.073280334 3.5290184 1.6090927c1.5212002 1.682373 2.8302555 4.046295 3.277485 5.918564l0 0c1.3623257 0.6923752 3.0763454 2.682312 4.248268 4.932129c1.1719227 2.2498245 1.5361843 4.24971 0.90283585 4.9568024z" fill-rule="nonzero"></path><path fill="#000000" fill-opacity="0.0" d="m26.396479 78.021484l0 0c-0.6428852 -0.32673645 -1.1567173 -0.336586 -1.4725056 -0.02822113m-5.333952 -7.4997253c-0.12513351 0.14974213 -0.21113777 0.35539246 -0.25579453 0.61164093m-6.1811905 -1.102562c0.40109253 0.39759064 0.80409145 0.83838654 1.2021303 1.3148956m-4.896533 3.892212l0 0c0.2737198 0.56695557 0.57720757 1.1369171 0.9054022 1.7003784m-1.0510263 6.2289963c1.6056108 2.5956116 3.606062 4.641945 5.142103 5.260025m0.87448025 8.476913c-0.41490364 -0.96595 -0.6970339 -1.8763351 -0.82427025 -2.6597824m7.531453 10.204483l0 0c-0.24469566 -0.3420334 -0.4804287 -0.6970749 -0.7039299 -1.0602112m5.862568 1.5182266l0 0c-0.13291931 -0.49327087 -0.31830597 -1.0215454 -0.55038834 -1.5683746m3.0978565 -1.1457062l0 0c-0.16784286 -0.41870117 -0.3662796 -0.8487778 -0.5907383 -1.2803421m3.1470203 -2.4104767l0 0c-0.39542198 -0.19987488 -0.81697655 -0.47431183 -1.2553978 -0.81728363m0.5603981 -9.622116l0 0c-0.27539253 -0.3980713 -0.55916023 -0.78391266 -0.8486481 -1.1539001" fill-rule="nonzero"></path><path stroke="#000000" stroke-width="2.0" stroke-linejoin="round" stroke-linecap="butt" d="m26.396479 78.021484l0 0c-0.6428852 -0.32673645 -1.1567173 -0.336586 -1.4725056 -0.02822113m-5.333952 -7.4997253c-0.12513351 0.14974213 -0.21113777 0.35539246 -0.25579453 0.61164093m-6.1811905 -1.102562c0.40109253 0.39759064 0.80409145 0.83838654 1.2021303 1.3148956m-4.896533 3.892212l0 0c0.2737198 0.56695557 0.57720757 1.1369171 0.9054022 1.7003784m-1.0510263 6.2289963c1.6056108 2.5956116 3.606062 4.641945 5.142103 5.260025m0.87448025 8.476913c-0.41490364 -0.96595 -0.6970339 -1.8763351 -0.82427025 -2.6597824m7.531453 10.204483l0 0c-0.24469566 -0.3420334 -0.4804287 -0.6970749 -0.7039299 -1.0602112m5.862568 1.5182266l0 0c-0.13291931 -0.49327087 -0.31830597 -1.0215454 -0.55038834 -1.5683746m3.0978565 -1.1457062l0 0c-0.16784286 -0.41870117 -0.3662796 -0.8487778 -0.5907383 -1.2803421m3.1470203 -2.4104767l0 0c-0.39542198 -0.19987488 -0.81697655 -0.47431183 -1.2553978 -0.81728363m0.5603981 -9.622116l0 0c-0.27539253 -0.3980713 -0.55916023 -0.78391266 -0.8486481 -1.1539001" fill-rule="nonzero"></path></g></svg>

